<svg xmlns="http://www.w3.org/2000/svg" width="70" height="70" viewBox="0 0 70 70"><defs><style>.a,.b{fill:none;}.b{stroke:#2049b9;stroke-width:2px;}</style></defs><g transform="translate(-419 -612)"><rect class="a" width="70" height="70" transform="translate(419 612)"/><g transform="translate(419.098 615.02)"><path class="b" d="M49.074,17.258,54.4,8.049a1.824,1.824,0,0,0-3.157-1.825L45.8,15.607a33.2,33.2,0,0,0-25.891,0L14.467,6.224A1.824,1.824,0,0,0,11.31,8.049l5.329,9.209A31.219,31.219,0,0,0,1,41.932H64.713A31.219,31.219,0,0,0,49.074,17.258Zm-30.7,16.71A3.62,3.62,0,1,1,22,30.348,3.62,3.62,0,0,1,18.376,33.968Zm28.96,0a3.62,3.62,0,1,1,3.62-3.62A3.62,3.62,0,0,1,47.337,33.968Z" transform="translate(1.902 8.601)"/></g></g></svg>