<svg xmlns="http://www.w3.org/2000/svg" width="70" height="70" viewBox="0 0 70 70"><defs><style>.a{fill:none;}.b{fill:#2149b9;stroke:#2049b9;stroke-width:0.1px;}</style></defs><g transform="translate(-1000 -597)"><rect class="a" width="70" height="70" transform="translate(1000 597)"/><g transform="translate(-82.5 -48)"><path class="b" d="M37.028,48.527H1.559a2.2,2.2,0,0,1-2.2-2.2V4.7a2.2,2.2,0,0,1,2.2-2.2H29.612a9.563,9.563,0,0,1,9.563,9.546V46.328a2.2,2.2,0,0,1-2.148,2.2ZM1.559,4.2a.494.494,0,0,0-.494.494V46.328a.494.494,0,0,0,.494.494H37.028a.494.494,0,0,0,.494-.494V12.046A7.859,7.859,0,0,0,29.612,4.2Z" transform="translate(1098.14 654.5)"/><path class="b" d="M32.381,12.7H11.2a.935.935,0,0,1-1-.852.935.935,0,0,1,1-.852H32.381a.935.935,0,0,1,1,.852A.935.935,0,0,1,32.381,12.7Z" transform="translate(1095.3 660.49)"/><path class="b" d="M32.388,17.2h-21.2a.863.863,0,1,1,0-1.7h21.2a.863.863,0,1,1,0,1.7Z" transform="translate(1095.31 663.662)"/><path class="b" d="M32.381,8.2H11.2a.935.935,0,0,1-1-.852.935.935,0,0,1,1-.852H32.381a.935.935,0,0,1,1,.852A.935.935,0,0,1,32.381,8.2Z" transform="translate(1095.3 657.319)"/><g transform="translate(-3.035)"><path class="b" d="M17.149,27.192H15.734l-.375-1.074H13.4l-.375,1.074H11.66l1.943-5.3h1.585Zm-2.114-2.046-.648-1.892-.665,1.892Z" transform="translate(1101.375 668.165)"/><path class="b" d="M19.708,23.561a1.943,1.943,0,0,1-.119.7,1.841,1.841,0,0,1-.358.58,2.318,2.318,0,0,1-1.7.631h-.852v1.7H15.31V21.89h2.25a3.869,3.869,0,0,1,.852.085,2.029,2.029,0,0,1,.614.273,1.33,1.33,0,0,1,.494.528A1.7,1.7,0,0,1,19.708,23.561Zm-1.415,0a.631.631,0,0,0-.119-.392.733.733,0,0,0-.29-.222,1.176,1.176,0,0,0-.409-.085h-.784v1.585h.972a.852.852,0,0,0,.375-.17.767.767,0,0,0,.2-.273,1.364,1.364,0,0,0,.051-.409Z" transform="translate(1103.947 668.164)"/><path class="b" d="M21.423,27.185h-3.1v-.938h.869V22.838H18.32V21.9h3.1v.938h-.869v3.409h.869Z" transform="translate(1106.068 668.171)"/></g></g></g></svg>