<svg xmlns="http://www.w3.org/2000/svg" width="22" height="22" viewBox="0 0 22 22"><defs><style>.a{fill:#fff;}.b{fill:none;opacity:0.4;}</style></defs><g transform="translate(-102 -133)"><g transform="translate(122.777 135) rotate(90)"><g transform="translate(0 0)"><path class="a" d="M9.142,20.777a1.4,1.4,0,0,1-.857-.338l-7.9-7.48a1.243,1.243,0,0,1-.041-1.768A1.227,1.227,0,0,1,2.1,11.155L7.9,16.635V1.247a1.247,1.247,0,1,1,2.493,0V16.635l5.792-5.48a1.231,1.231,0,0,1,1.758.037,1.247,1.247,0,0,1-.044,1.768L10,20.44a1.213,1.213,0,0,1-.857.338Z"/></g></g><rect class="b" width="22" height="22" transform="translate(102 133)"/></g></svg>