<svg xmlns="http://www.w3.org/2000/svg" width="70" height="70" viewBox="0 0 70 70"><defs><style>.a{fill:none;}.b{fill:#2149b9;}</style></defs><g transform="translate(-377 -306)"><rect class="a" width="70" height="70" transform="translate(377 306)"/><g transform="translate(382.019 311.012)"><g transform="translate(-0.019 -0.011)"><path class="b" d="M59.087,29.543A29.438,29.438,0,0,0,50.82,9.079.854.854,0,0,0,50.765,9a.07.07,0,0,1-.061-.043A29.486,29.486,0,0,0,8.668,8.634l-.061.043a.877.877,0,0,0-.055.085A29.492,29.492,0,0,0,9.6,51.341s0,0,0,.037a.914.914,0,0,0,.183.146A29.419,29.419,0,0,0,28.8,59.09a.883.883,0,0,0,.853,0,29.431,29.431,0,0,0,20.007-7.92.872.872,0,0,0,.1-.073.055.055,0,0,1,.03-.049A29.462,29.462,0,0,0,59.087,29.543ZM49.041,49.221A29.5,29.5,0,0,0,42.126,44.8a54.221,54.221,0,0,0,2.029-14.25h13.1a27.634,27.634,0,0,1-8.218,18.667ZM1.82,28.726A27.61,27.61,0,0,1,9.289,10.645a29.535,29.535,0,0,0,7.25,5.191,55.689,55.689,0,0,0-1.608,12.9ZM18.269,16.639a29.383,29.383,0,0,0,10.052,2.3v9.784H16.746a53.373,53.373,0,0,1,1.523-12.087Zm31.813-5.678a27.6,27.6,0,0,1,7.177,17.765H44.149A55.926,55.926,0,0,0,42.638,16.1a29.517,29.517,0,0,0,7.445-5.136Zm-19.934,33a27.707,27.707,0,0,1,9.668,1.828c-2.236,6.6-5.757,11.015-9.668,11.435Zm0-1.828V30.56H42.333a52.13,52.13,0,0,1-1.956,13.513,29.529,29.529,0,0,0-10.229-1.937Zm12.184-13.4H30.149V18.985a29.492,29.492,0,0,0,10.71-2.114,53.514,53.514,0,0,1,1.462,11.855ZM30.149,17.157V1.86c4.265.457,8.06,5.7,10.241,13.226a27.659,27.659,0,0,1-10.241,2.059ZM28.321,1.969V17.109a27.543,27.543,0,0,1-9.559-2.254c2.084-7.049,5.6-12.038,9.559-12.9Zm0,28.6V42.172a29.474,29.474,0,0,0-9.546,2.108,51.961,51.961,0,0,1-2.017-13.726Zm0,13.445V57.128c-3.655-.78-6.866-5.008-8.986-11.1a27.64,27.64,0,0,1,8.986-2.023Zm-4.74,12.6A27.64,27.64,0,0,1,11.7,50.731a27.7,27.7,0,0,1,5.909-3.923C19.1,51.085,21.163,54.484,23.581,56.61ZM41.56,46.558a27.664,27.664,0,0,1,6.123,3.911A27.646,27.646,0,0,1,35.5,56.61C37.965,54.442,40.055,50.957,41.56,46.558ZM48.8,9.64a27.7,27.7,0,0,1-6.7,4.648c-1.529-5.227-3.838-9.364-6.628-11.819A27.683,27.683,0,0,1,48.809,9.64ZM17.051,14.008a27.726,27.726,0,0,1-6.458-4.673,27.671,27.671,0,0,1,12.989-6.86C20.84,4.869,18.561,8.921,17.051,14.008ZM1.82,30.554h13.11a54,54,0,0,0,2.12,14.524,29.511,29.511,0,0,0-6.7,4.447A27.634,27.634,0,0,1,1.82,30.554Z" transform="translate(0.019 0.011)"/></g></g></g></svg>