<svg xmlns="http://www.w3.org/2000/svg" width="22" height="22" viewBox="0 0 22 22"><defs><style>.a{fill:none;}.b{fill:#3b3b3b;}</style></defs><g transform="translate(-408 -42)"><rect class="a" width="22" height="22" transform="translate(408 42)"/><g transform="translate(405.76 43.14)"><path class="b" d="M5.24,24.91v9.816a1.734,1.734,0,0,0,1.74,1.731H19.665A1.734,1.734,0,0,0,21.4,34.726V24.91Zm4.618,8.8a.435.435,0,0,1-.432.435H7.982a.438.438,0,0,1-.435-.435V32.271a.435.435,0,0,1,.435-.432H9.426a.435.435,0,0,1,.432.432Zm0-4.618a.435.435,0,0,1-.432.432H7.982a.435.435,0,0,1-.435-.432V27.655a.435.435,0,0,1,.435-.432H9.426a.435.435,0,0,1,.432.432Zm4.618,4.618a.435.435,0,0,1-.432.435H12.6a.435.435,0,0,1-.432-.435V32.271a.432.432,0,0,1,.432-.432h1.444a.432.432,0,0,1,.432.432Zm0-4.618a.432.432,0,0,1-.432.432H12.6a.432.432,0,0,1-.432-.432V27.655a.432.432,0,0,1,.432-.432h1.444a.432.432,0,0,1,.432.432ZM19.1,33.714a.438.438,0,0,1-.435.435H17.219a.435.435,0,0,1-.432-.435V32.271a.435.435,0,0,1,.432-.432h1.444a.435.435,0,0,1,.435.432Zm0-4.618a.435.435,0,0,1-.435.432H17.219a.435.435,0,0,1-.432-.432V27.655a.435.435,0,0,1,.432-.432h1.444a.435.435,0,0,1,.435.432Z" transform="translate(0 -16.786)"/><path class="b" d="M21.421,11.428v1.3a.435.435,0,0,1-.432.432H5.712a.435.435,0,0,1-.432-.432v-1.3A1.728,1.728,0,0,1,7.008,9.7H8.146v.317a1.015,1.015,0,0,0,1.015,1.012h1.432a1.015,1.015,0,0,0,1.015-1.012V9.7h3.443v.317a1.015,1.015,0,0,0,1.018,1.012H17.5a1.015,1.015,0,0,0,1.015-1.012V9.7h1.178a1.728,1.728,0,0,1,1.728,1.728Z" transform="translate(-0.028 -6.17)"/><rect class="b" width="2.28" height="3.413" rx="1.14" transform="translate(8.71 0.86)"/><rect class="b" width="2.28" height="3.413" rx="1.14" transform="translate(15.615 0.86)"/></g></g></svg>