<svg xmlns="http://www.w3.org/2000/svg" width="44.154" height="36.616" viewBox="0 0 44.154 36.616">
  <g id="camera" transform="translate(0 0)">
    <path id="Path_826" data-name="Path 826" d="M136.017,89.6l-2.692,5.385h-9.154a3.761,3.761,0,0,0-3.769,3.769v23.693a3.761,3.761,0,0,0,3.769,3.769h36.616a3.761,3.761,0,0,0,3.769-3.769V98.756a3.761,3.761,0,0,0-3.769-3.769h-9.154L148.941,89.6Zm6.462,8.616A12.385,12.385,0,1,1,130.094,110.6,12.426,12.426,0,0,1,142.479,98.218Zm0,5.385a7,7,0,1,0,7,7A6.96,6.96,0,0,0,142.479,103.6Z" transform="translate(-120.402 -89.602)" fill="#fff"/>
  </g>
</svg>
