<svg xmlns="http://www.w3.org/2000/svg" width="22.5" height="22.501" viewBox="0 0 22.5 22.501">
  <g id="Expand" transform="translate(-104.752 -34.747)">
    <path id="Path_824" data-name="Path 824" d="M116,35a11.012,11.012,0,1,0,7.775,3.225A11,11,0,0,0,116,35Zm0,20.953a9.964,9.964,0,1,1,7.034-2.918A9.952,9.952,0,0,1,116,55.951Z" transform="translate(0 0)" fill="#2049b9" stroke="#2049b9" stroke-width="0.5"/>
    <path id="Path_825" data-name="Path 825" d="M213.631,138.766h-4.139V134.63a.394.394,0,0,0-.789,0v4.136h-4.139a.394.394,0,0,0,0,.788H208.7v4.139a.394.394,0,0,0,.789,0v-4.139h4.139a.394.394,0,0,0,0-.788Z" transform="translate(-93.096 -93.161)" fill="#2049b9" stroke="#2049b9" stroke-width="0.5"/>
  </g>
</svg>
