<svg xmlns="http://www.w3.org/2000/svg" width="67.52" height="84.525" viewBox="0 0 67.52 84.525">
  <g id="Group_2383" data-name="Group 2383" transform="translate(-1185.641 -82)">
    <g id="noun-phone-4799700" transform="translate(997.829 2.347)">
      <path id="Path_827" data-name="Path 827" d="M255.112,127.943,238.262,96.76a1.954,1.954,0,0,0-3.675,0l-16.85,31.183a1.851,1.851,0,0,0,1.617,2.7c2.279.018,16.739,0,18.614,0H253.5a1.831,1.831,0,0,0,1.617-2.7Zm-20.525-18.6a1.838,1.838,0,0,1,3.675,0c.018,1.819,0,6.431,0,8.306a1.838,1.838,0,0,1-3.675,0C234.605,115.779,234.587,111.167,234.587,109.348Zm.533,14.81a1.839,1.839,0,1,1,2.572-.019A1.839,1.839,0,0,1,235.121,124.157Z" fill="#ff6d02"/>
    </g>
    <g id="noun-phone-4799700-2" data-name="noun-phone-4799700" transform="translate(998.829 3.248)">
      <path id="Path_827-2" data-name="Path 827" d="M206.749,151.095a5.8,5.8,0,1,0,2.917-4.967A5.8,5.8,0,0,0,206.749,151.095Zm5.788-2.131h0a2.123,2.123,0,1,1-2.094,2.123,2.123,2.123,0,0,1,2.094-2.123Zm22.05,6.964h0a3.675,3.675,0,0,1-3.675,3.675h-36.75a3.675,3.675,0,0,1-3.675-3.675V86.1a3.686,3.686,0,0,1,3.675-3.675h4.833a7.346,7.346,0,0,0,7.166,5.806h12.753a7.367,7.367,0,0,0,7.184-5.806h4.814a3.686,3.686,0,0,1,3.675,3.675v6.027a5.275,5.275,0,0,1,3.675,0V86.1a7.361,7.361,0,0,0-7.35-7.35h-36.75a7.361,7.361,0,0,0-7.35,7.35v69.825a7.349,7.349,0,0,0,7.35,7.35h36.75a7.349,7.349,0,0,0,7.35-7.35V134.318h-3.675Zm-12.348-73.5a3.67,3.67,0,0,1-3.326,2.131H206.161a3.643,3.643,0,0,1-3.307-2.131Z" fill="#2049b9"/>
    </g>
  </g>
</svg>
