<svg xmlns="http://www.w3.org/2000/svg" width="70" height="70" viewBox="0 0 70 70">
  <g id="XinFin-Origin" transform="translate(11300 20300)">
    <rect id="Rectangle_266" data-name="Rectangle 266" width="70" height="70" transform="translate(-11300 -20300)" fill="rgba(255,255,255,0)"/>
    <g id="Group_967" data-name="Group 967" transform="translate(-11306.551 -20144)">
      <path id="Subtraction_2" data-name="Subtraction 2" d="M18.53,37.059a18.667,18.667,0,0,1-3.734-.376A18.425,18.425,0,0,1,8.17,33.895a18.584,18.584,0,0,1-6.713-8.153,18.443,18.443,0,0,1-1.08-3.478,18.708,18.708,0,0,1,0-7.469A18.425,18.425,0,0,1,3.165,8.17a18.584,18.584,0,0,1,8.153-6.713A18.443,18.443,0,0,1,14.8.377a18.708,18.708,0,0,1,7.469,0c.114.023.229.048.342.073a10.511,10.511,0,0,1,2.037,1.218,8,8,0,0,1,1.99,2.182,6.984,6.984,0,0,1,1,3.33,9.126,9.126,0,0,1-.169,2.154,13.221,13.221,0,0,1-.771,2.51c-.22-.268-.456-.529-.7-.774a10.566,10.566,0,0,0-3.353-2.261,10.486,10.486,0,0,0-1.98-.615,10.651,10.651,0,0,0-4.252,0,10.495,10.495,0,0,0-3.772,1.587,10.579,10.579,0,0,0-3.822,4.642,10.482,10.482,0,0,0-.615,1.98,10.651,10.651,0,0,0,0,4.252,10.492,10.492,0,0,0,1.587,3.772,10.578,10.578,0,0,0,4.642,3.822,10.482,10.482,0,0,0,1.98.615,10.651,10.651,0,0,0,4.252,0,10.492,10.492,0,0,0,3.772-1.587,10.58,10.58,0,0,0,3.822-4.642,10.486,10.486,0,0,0,.615-1.98,10.651,10.651,0,0,0,0-4.252,10.5,10.5,0,0,0-.491-1.675,2.086,2.086,0,0,0-.035-.307,12.523,12.523,0,0,1-.2-2.446,17.988,17.988,0,0,1,.181-2.353,16.489,16.489,0,0,1,.768-3.258,3.25,3.25,0,0,1,.608-1.018,1.261,1.261,0,0,1,.923-.458,1.311,1.311,0,0,1,.692.22c.11.1.22.212.326.319a18.558,18.558,0,0,1,3.971,5.89,18.443,18.443,0,0,1,1.08,3.478,18.708,18.708,0,0,1,0,7.469,18.425,18.425,0,0,1-2.788,6.626A18.584,18.584,0,0,1,25.742,35.6a18.443,18.443,0,0,1-3.478,1.08A18.667,18.667,0,0,1,18.53,37.059Z" transform="translate(21.551 -134.991)" fill="rgba(255,255,255,0)" stroke="#2048b9" stroke-width="1.5"/>
      <g id="Group_1" data-name="Group 1" transform="translate(48.143 -145)">
        <path id="Path_6" data-name="Path 6" d="M544.709,199.971s-3.361-4.144,1.059-8.927,11.833-3.407,11.833-3.407-2.279,1.872-2.751,3.345c-.552,1.819-2.386,5.859-4.306,7.194a10.393,10.393,0,0,1-3.533,2.118,7.016,7.016,0,0,1-1.335.369s1.658-6.907,5.341-9.117A10.236,10.236,0,0,0,544.709,199.971Z" transform="translate(-543.485 -187.454)" fill="rgba(255,255,255,0)" stroke="#2048b9" stroke-width="1"/>
        <path id="Path_7" data-name="Path 7" d="M559.68,201.81s1.335-6.343,5.341-9.117a44.844,44.844,0,0,1,6.584-3.913,18.966,18.966,0,0,0-2.562,3.111c-.626,1.059-1.488,4.058-2.781,5.579A11.16,11.16,0,0,1,559.68,201.81Z" transform="translate(-557.49 -188.601)" fill="rgba(255,255,255,0)" stroke="#2048b9" stroke-width="1"/>
      </g>
    </g>
  </g>
</svg>
