<svg xmlns="http://www.w3.org/2000/svg" width="70" height="70" viewBox="0 0 70 70"><defs><style>.a{fill:none;}.b{fill:#2149b9;stroke:#2049b9;stroke-width:0.9px;}</style></defs><g transform="translate(-689 -597)"><rect class="a" width="70" height="70" transform="translate(689 597)"/><g transform="translate(695 600)"><g transform="translate(4 11)"><path class="b" d="M9.732,11C6.192,11,4,13.455,4,16.177V47.793a5.007,5.007,0,0,0,5.143,5.16h43.8a.538.538,0,0,0,.538-.538v-31.2a.538.538,0,0,0-.538-.538h-4.3V11.538A.538.538,0,0,0,48.1,11Zm0,1.076H47.567v8.606L9.732,20.665a4.438,4.438,0,0,1-3.345-1.21,4.994,4.994,0,0,1-1.277-2.807.538.538,0,0,0-.034-.134v-.336C5.076,14.009,6.67,12.076,9.732,12.076ZM5.076,19.387a4.894,4.894,0,0,0,.555.807,5.572,5.572,0,0,0,4.1,1.546l42.676.017V30.9H38.961a.49.49,0,0,0-.538.538V42.2a.538.538,0,0,0,.538.538H52.407v9.144H9.143a3.834,3.834,0,0,1-4.068-4.084ZM39.5,31.977H52.407v9.681H39.5Zm4.3,2.151a2.689,2.689,0,1,0,2.689,2.689A2.7,2.7,0,0,0,43.8,34.128Zm0,1.076a1.614,1.614,0,1,1-1.614,1.614A1.605,1.605,0,0,1,43.8,35.2Z" transform="translate(-4 -11)"/></g></g></g></svg>