<svg xmlns="http://www.w3.org/2000/svg" width="30" height="30" viewBox="0 0 30 30"><defs><style>.a{fill:#2149b9;}.b{fill:none;}</style></defs><g transform="translate(-214 -36)"><g transform="translate(211 33)"><g transform="translate(5 5)"><path class="a" d="M18.307,957.362A13.307,13.307,0,1,0,31.615,970.67,13.321,13.321,0,0,0,18.307,957.362Zm-.887,1.95v5.443h-3.66a14.367,14.367,0,0,1,.924-2.477A5.664,5.664,0,0,1,17.42,959.312Zm1.774,0a5.664,5.664,0,0,1,2.735,2.966,14.369,14.369,0,0,1,.924,2.477h-3.66Zm-5.184.656a11.053,11.053,0,0,0-.915,1.525,16.619,16.619,0,0,0-1.183,3.262H8.4A11.556,11.556,0,0,1,14.01,959.968Zm8.594,0a11.556,11.556,0,0,1,5.609,4.787H24.7a16.618,16.618,0,0,0-1.183-3.262,11.05,11.05,0,0,0-.915-1.525ZM7.541,966.529h4a24.919,24.919,0,0,0-.314,3.253H6.811A11.507,11.507,0,0,1,7.541,966.529Zm5.813,0H17.42v3.253H13A22.975,22.975,0,0,1,13.354,966.529Zm5.84,0h4.066a22.979,22.979,0,0,1,.351,3.253H19.194v-3.253Zm5.877,0h4a11.506,11.506,0,0,1,.73,3.253H25.386a24.925,24.925,0,0,0-.314-3.253ZM6.811,971.557h4.417a24.784,24.784,0,0,0,.314,3.253h-4A11.5,11.5,0,0,1,6.811,971.557Zm6.192,0H17.42v3.253H13.354A22.835,22.835,0,0,1,13,971.557Zm6.192,0h4.417a22.835,22.835,0,0,1-.351,3.253H19.194Zm6.192,0H29.8a11.5,11.5,0,0,1-.73,3.253h-4A24.784,24.784,0,0,0,25.386,971.557ZM8.392,976.584h3.521a16.541,16.541,0,0,0,1.183,3.262,11.168,11.168,0,0,0,.915,1.534A11.553,11.553,0,0,1,8.392,976.584Zm5.369,0h3.66v5.452a5.719,5.719,0,0,1-2.735-2.985A14.3,14.3,0,0,1,13.761,976.584Zm5.434,0h3.66a14.307,14.307,0,0,1-.924,2.467,5.719,5.719,0,0,1-2.735,2.985Zm5.508,0h3.521a11.553,11.553,0,0,1-5.619,4.8,11.165,11.165,0,0,0,.915-1.534,16.539,16.539,0,0,0,1.183-3.262Z" transform="translate(-5 -957.362)"/></g></g><rect class="b" width="30" height="30" transform="translate(214 36)"/></g></svg>