<svg xmlns="http://www.w3.org/2000/svg" width="22" height="22" viewBox="0 0 22 22"><defs><style>.a{fill:none;}.b{fill:#2149b9;}</style></defs><g transform="translate(-452 -43)"><rect class="a" width="22" height="22" transform="translate(452 43)"/><g transform="translate(498.777 17) rotate(90)"><g transform="translate(28 24.999)"><path class="b" d="M37.142,977.362a1.4,1.4,0,0,0-.857.338l-7.9,7.48a1.243,1.243,0,0,0-.041,1.768,1.227,1.227,0,0,0,1.755.037L35.9,981.5v15.388a1.247,1.247,0,1,0,2.493,0V981.5l5.792,5.48a1.231,1.231,0,0,0,1.758-.037,1.247,1.247,0,0,0-.044-1.768L38,977.7a1.213,1.213,0,0,0-.857-.338Z" transform="translate(-28 -977.362)"/></g></g></g></svg>