<svg xmlns="http://www.w3.org/2000/svg" width="36" height="36" viewBox="0 0 36 36"><defs><style>.a{fill:none;}.b{fill:rgba(0,0,0,0);stroke:#2049b9;stroke-width:2px;fill-rule:evenodd;}.c{fill:#2149b9;}</style></defs><g transform="translate(-61 -62)"><rect class="a" width="36" height="36" transform="translate(61 62)"/><g transform="translate(-312 -1279)"><g transform="translate(375 1343)"><g transform="translate(0 0)"><path class="b" d="M16.881,1A16.005,16.005,0,0,0,1.088,14.418L6.248,17,1.088,19.582a16,16,0,0,0,31.586,0L27.512,17l5.162-2.58A16.005,16.005,0,0,0,16.881,1Z" transform="translate(-1.088 -1)"/><path class="c" d="M12.7,22.244,15.5,17.491l2.786,4.753h2.626L16.9,15.711l3.916-6.426h-2.6L15.5,13.966,12.773,9.285h-2.6L14.1,15.711l-4.014,6.533Z" transform="translate(0.267 0.267)"/></g></g></g></g></svg>