<svg xmlns="http://www.w3.org/2000/svg" width="111.067" height="111.067" viewBox="0 0 111.067 111.067"><defs><style>.a{fill:#2149b9;}.b{fill:none;stroke-miterlimit:10;}.c{fill:#fff;}.d,.e{stroke:none;}.e{fill:#fff;}</style></defs><g transform="translate(-790 -307)"><path class="a" d="M55.534,0A55.534,55.534,0,1,1,0,55.534,55.534,55.534,0,0,1,55.534,0Z" transform="translate(790 307)"/><g transform="translate(816 333)"><g class="b" transform="translate(0 0)"><path class="d" d="M29.813,60A30,30,0,0,1,0,33.368L6.736,30,0,26.632a30,30,0,0,1,59.626,0L52.89,30l6.736,3.368A30,30,0,0,1,29.813,60Z"/><path class="e" d="M 29.81283378601074 58.00022888183594 C 36.74348449707031 58.00022888183594 43.39426040649414 55.44902801513672 48.54003524780273 50.81656646728516 C 53.30289459228516 46.52882766723633 56.43402481079102 40.78341293334961 57.45098495483398 34.51667404174805 L 48.41807174682617 30.00062942504883 L 57.45106506347656 25.48372077941895 C 56.43409729003906 19.21714973449707 53.30294418334961 13.47171306610107 48.54005813598633 9.183891296386719 C 43.39418411254883 4.551291465759277 36.7433967590332 2.000003814697266 29.81283378601074 2.000003814697266 C 22.88255882263184 2.000003814697266 16.23197174072266 4.551291465759277 11.08620929718018 9.183878898620605 C 6.323370456695557 13.47172355651855 3.192242383956909 19.21716117858887 2.175276279449463 25.48372077941895 L 11.20843410491943 30.00071716308594 L 2.175334692001343 34.51644515991211 C 3.192300796508789 40.7831916809082 6.323406219482422 46.52861022949219 11.08622169494629 50.81645202636719 C 16.23193359375 55.44897842407227 22.88250923156738 58.00022888183594 29.81283378601074 58.00022888183594 M 29.81283378601074 60.00022888183594 C 22.38748359680176 60.00022888183594 15.26168346405029 57.26657867431641 9.748071670532227 52.30284118652344 C 4.27574634552002 47.37625503540039 0.8138213753700256 40.65169143676758 3.388671757420525e-05 33.36790466308594 L 6.736134052276611 30.00046730041504 L -3.613281251091394e-06 26.6320915222168 C 0.8138338923454285 19.34806632995605 4.275908946990967 12.62390422821045 9.748059272766113 7.69749116897583 C 15.26172161102295 2.733691453933716 22.38753318786621 3.848266715067439e-06 29.81283378601074 3.848266715067439e-06 C 37.23842239379883 3.848266715067439e-06 44.36443328857422 2.733691453933716 49.87819671630859 7.69749116897583 C 55.3505973815918 12.62405395507812 58.81255722045898 19.34849166870117 59.62634658813477 26.6320915222168 L 52.89020919799805 30.00046730041504 L 59.62627029418945 33.36819076538086 C 58.81244659423828 40.6524543762207 55.35033416748047 47.37668991088867 49.87815856933594 52.302978515625 C 44.36448287963867 57.26663970947266 37.23849487304688 60.00022888183594 29.81283378601074 60.00022888183594 Z"/></g><path class="c" d="M4.638,22.969l4.953-8.424,4.938,8.424h4.654l-7.1-11.579L19.025,0H14.419L9.591,8.3,4.764,0H.158L7.115,11.39,0,22.969Z" transform="translate(20.171 18.57)"/></g></g></svg>