<svg xmlns="http://www.w3.org/2000/svg" width="22" height="23" viewBox="0 0 22 23"><defs><style>.a{fill:none;}.b{fill:#2149b9;stroke:#2049b9;stroke-width:0.4px;fill-rule:evenodd;}</style></defs><g transform="translate(-500 -42)"><rect class="a" width="22" height="23" transform="translate(500 42)"/><g transform="translate(501.925 -192.26)"><g transform="translate(0.075 236.259)"><path class="b" d="M17.932,7.447,8.1,17.2c-4.3,4.376-10.976-2.3-6.6-6.6L11.26.775c3.228-3.228,8.393,1.937,5.165,5.165L7.243,15.123a2.182,2.182,0,0,1-3.085-3.085L10.4,5.8c.43-.43,1.148.287.717.717L4.876,12.755c-1.076,1.076.574,2.8,1.65,1.65l9.183-9.183c2.3-2.3-1.435-6.026-3.73-3.73L2.221,11.249c-3.443,3.443,1.793,8.68,5.237,5.237l9.757-9.757C17.645,6.227,18.363,6.945,17.932,7.447Z" transform="translate(-0.075 0.247)"/></g></g></g></svg>