<svg xmlns="http://www.w3.org/2000/svg" width="8.999" height="9" viewBox="0 0 8.999 9">
  <g id="Cross2" transform="translate(-78.505 -129.085)">
    <path id="Path_828" data-name="Path 828" d="M207.949,129.918l-.013.013c-.1.106-.209.209-.313.313l-3.341,3.341,3.667,3.667a.489.489,0,0,1-.691.691l-.013-.013c-.106-.1-.209-.209-.313-.313l-3.341-3.341-3.667,3.667a.489.489,0,0,1-.691-.691l.013-.013c.1-.106.209-.209.313-.313l3.341-3.341-3.667-3.667a.489.489,0,1,1,.691-.691l.013.013c.106.1.209.209.313.313l3.341,3.341,3.667-3.667a.489.489,0,0,1,.691.691Z" transform="translate(-120.585)" fill="#2a2a2a"/>
  </g>
</svg>
