<svg xmlns="http://www.w3.org/2000/svg" width="37.5" height="37.5" viewBox="0 0 37.5 37.5"><defs><style>.a{fill:#fff;}</style></defs><path class="a" d="M18.75,37.5A18.75,18.75,0,1,1,37.5,18.75,18.771,18.771,0,0,1,18.75,37.5Zm0-35.937A17.188,17.188,0,1,0,35.938,18.75,17.208,17.208,0,0,0,18.75,1.563Z"/><g transform="translate(10.779 12.901)"><path class="a" d="M12.79,19.954a.787.787,0,0,1-.553-.228L7.127,14.617a.781.781,0,1,1,1.1-1.1l4.556,4.556,9.581-9.583a.781.781,0,0,1,1.1,1.1L13.341,19.724A.775.775,0,0,1,12.79,19.954Z" transform="translate(-6.899 -8.257)"/></g></svg>