<svg xmlns="http://www.w3.org/2000/svg" width="12" height="12" viewBox="0 0 12 12"><defs><style>.a{fill:none;}.b{fill:#2149b9;}</style></defs><g transform="translate(-317 -49)"><rect class="a" width="12" height="12" transform="translate(317 49)"/><g transform="translate(291.019 25.48)"><g transform="translate(703.636 -687.379) rotate(45)"><path class="b" d="M31.955,977.362a.605.605,0,0,0-.371.146l-3.416,3.236a.538.538,0,0,0-.018.765.531.531,0,0,0,.759.016l2.506-2.371v6.657a.539.539,0,0,0,1.079,0v-6.657L35,981.524a.533.533,0,0,0,.761-.016.539.539,0,0,0-.019-.765l-3.416-3.236a.525.525,0,0,0-.371-.146Z"/></g></g></g></svg>