<svg xmlns="http://www.w3.org/2000/svg" width="22.904" height="27.38" viewBox="0 0 22.904 27.38">
  <g id="Group_2380" data-name="Group 2380" transform="translate(-563.254 -889)">
    <path id="noun-paper-4804777" d="M184.142,61.6l-4.408-5.043a3.637,3.637,0,0,0-2.465-1.12H164.113a1.942,1.942,0,0,0-1.939,1.939v23.5a1.94,1.94,0,0,0,1.939,1.939h19.025a1.943,1.943,0,0,0,1.939-1.939V64.094a4.246,4.246,0,0,0-.936-2.489Zm-1.851.406h-2.807a.281.281,0,0,1-.277-.273V58.491Zm1.123,18.871a.275.275,0,0,1-.277.273H164.114a.279.279,0,0,1-.277-.273v-23.5a.282.282,0,0,1,.277-.273h13.159a1.1,1.1,0,0,1,.276.041v4.589a1.943,1.943,0,0,0,1.939,1.939h3.869a1.906,1.906,0,0,1,.058.413Z" transform="translate(401.08 833.558)" fill="#909090"/>
    <line id="Line_80" data-name="Line 80" x2="12" transform="translate(569 905)" fill="none" stroke="#909090" stroke-linecap="round" stroke-width="1.8"/>
    <line id="Line_81" data-name="Line 81" x2="12" transform="translate(569 909)" fill="none" stroke="#909090" stroke-linecap="round" stroke-width="1.8"/>
  </g>
</svg>
