<svg xmlns="http://www.w3.org/2000/svg" width="511" height="370.911" viewBox="0 0 511 370.911">
  <g id="Group_2342" data-name="Group 2342" transform="translate(-1074 -103.044)">
    <g id="Group_2335" data-name="Group 2335" transform="translate(-48.969 -15)">
      <rect id="Rectangle_645" data-name="Rectangle 645" width="250" height="343" rx="4" transform="translate(1294.832 118.044) rotate(7)" fill="#b8cafd"/>
      <rect id="Rectangle_644" data-name="Rectangle 644" width="250" height="343" rx="4" transform="translate(1273 132)" fill="#fff"/>
      <line id="Line_55" data-name="Line 55" x2="116" transform="translate(1340.5 176.5)" fill="none" stroke="#2049b9" stroke-width="12"/>
      <line id="Line_56" data-name="Line 56" x2="116" transform="translate(1340.5 191.5)" fill="none"/>
      <line id="Line_57" data-name="Line 57" x2="118" transform="translate(1295.5 232.5)" fill="none" stroke="#b9c6e6" stroke-width="8"/>
      <line id="Line_64" data-name="Line 64" x2="200" transform="translate(1295.5 299.5)" fill="none" stroke="#b9c6e6" stroke-width="8"/>
      <line id="Line_60" data-name="Line 60" x2="66" transform="translate(1295.5 277.5)" fill="none" stroke="#b9c6e6" stroke-width="8"/>
      <line id="Line_61" data-name="Line 61" x2="205" transform="translate(1295.5 344.5)" fill="none" stroke="#b9c6e6" stroke-width="8"/>
      <line id="Line_65" data-name="Line 65" x2="100" transform="translate(1295.5 359.5)" fill="none" stroke="#b9c6e6" stroke-width="8"/>
      <line id="Line_66" data-name="Line 66" x2="59" transform="translate(1295.5 400.5)" fill="none" stroke="#2049b9" stroke-width="8"/>
      <line id="Line_67" data-name="Line 67" x2="59" transform="translate(1295.5 415.5)" fill="none" stroke="#2049b9" stroke-width="8"/>
      <line id="Line_58" data-name="Line 58" x2="205" transform="translate(1295.5 247.5)" fill="none" stroke="#b9c6e6" stroke-width="8"/>
      <line id="Line_63" data-name="Line 63" x2="205" transform="translate(1295.5 314.5)" fill="none" stroke="#b9c6e6" stroke-width="8"/>
      <line id="Line_59" data-name="Line 59" x2="205" transform="translate(1295.5 262.5)" fill="none" stroke="#b9c6e6" stroke-width="8"/>
      <line id="Line_62" data-name="Line 62" x2="205" transform="translate(1295.5 329.5)" fill="none" stroke="#b9c6e6" stroke-width="8"/>
      <g id="Polygon_2" data-name="Polygon 2" transform="translate(1425 382)" fill="#5278e0">
        <path d="M 42.37664413452148 73.37496185302734 C 41.85625457763672 73.37496185302734 41.33721160888672 73.30706024169922 40.83391189575195 73.17311096191406 L 40.57177734375 73.10334777832031 C 39.73307800292969 72.88015747070312 38.8678092956543 72.76699066162109 37.99997711181641 72.76699066162109 C 37.13213348388672 72.76699066162109 36.26687622070312 72.88015747070312 35.4282341003418 73.10334014892578 L 35.16602325439453 73.17312622070312 C 34.66286849975586 73.30702209472656 34.1437873840332 73.37493896484375 33.62324523925781 73.37496185302734 C 32.49476623535156 73.37499237060547 31.39284515380859 73.0582275390625 30.43661117553711 72.45889282226562 L 30.20282173156738 72.31237030029297 C 28.72833251953125 71.38823699951172 27.02988815307617 70.86305999755859 25.29112243652344 70.79362487792969 L 25.01685523986816 70.78266906738281 C 23.36247825622559 70.71661376953125 21.79355621337891 69.95961761474609 20.71234512329102 68.70577239990234 L 20.52514457702637 68.48867797851562 C 19.39017868041992 67.17253875732422 17.92422294616699 66.17062377929688 16.28573417663574 65.59124755859375 L 16.0175895690918 65.49643707275391 C 14.45904445648193 64.94535064697266 13.18484401702881 63.76080322265625 12.5217113494873 62.24651336669922 L 12.40143299102783 61.97184753417969 C 11.70538902282715 60.38246917724609 10.60164451599121 58.99504852294922 9.209488868713379 57.95953750610352 L 8.970810890197754 57.7819938659668 C 7.646511077880859 56.79695892333984 6.779055595397949 55.2916145324707 6.590866565704346 53.65192413330078 L 6.555411338806152 53.34302520751953 C 6.357844352722168 51.62173843383789 5.712355613708496 49.97304916381836 4.688711166381836 48.57518005371094 L 4.505989074707031 48.32566070556641 C 3.531988859176636 46.99558258056641 3.14644455909729 45.30318069458008 3.448233366012573 43.68243789672852 L 3.506077766418457 43.3718147277832 C 3.823022127151489 41.66971588134766 3.691111087799072 39.90525817871094 3.124622106552124 38.26921463012695 L 3.021355628967285 37.97097015380859 C 2.482066631317139 36.41350173950195 2.611510992050171 34.68293762207031 3.376488924026489 33.22301483154297 L 3.521911144256592 32.94549179077148 C 4.325655460357666 31.41155815124512 4.718555450439453 29.68594741821289 4.658122062683105 27.95523643493652 L 4.647144317626953 27.6410026550293 C 4.58958911895752 25.9926815032959 5.222933292388916 24.37585830688477 6.384788990020752 23.20514869689941 L 6.598800182342529 22.98949241638184 C 7.82004451751709 21.75894737243652 8.704255104064941 20.22373580932617 9.155811309814453 18.54985809326172 L 9.235488891601562 18.25444793701172 C 9.665678024291992 16.65974807739258 10.748366355896 15.29949188232422 12.2059440612793 14.52248096466064 L 12.46253299713135 14.38571453094482 C 13.99493312835693 13.56882572174072 15.29411125183105 12.36042594909668 16.21966743469238 10.89111423492432 L 16.37595558166504 10.64300346374512 C 17.25775527954102 9.243125915527344 18.69532203674316 8.261125564575195 20.32003402709961 7.948814392089844 L 20.59377861022949 7.896192073822021 C 22.30171203613281 7.567870140075684 23.90185546875 6.795403480529785 25.22125625610352 5.66229248046875 L 25.43418884277344 5.479425430297852 C 26.52165603637695 4.54550313949585 27.90983390808105 4.031169891357422 29.34302139282227 4.031169891357422 C 29.56242179870605 4.031169891357422 29.78434371948242 4.043403148651123 30.00263404846191 4.0675368309021 L 30.27288818359375 4.09742546081543 C 30.63636589050293 4.137603282928467 31.00605583190918 4.157969951629639 31.37173271179199 4.157980918884277 C 32.75146484375 4.158003330230713 34.09266662597656 3.879125595092773 35.35810089111328 3.329092264175415 L 35.60821151733398 3.220370054244995 C 36.36742401123047 2.89037013053894 37.17213439941406 2.723047733306885 37.9999885559082 2.723047733306885 C 38.82783508300781 2.723047733306885 39.6325569152832 2.89037013053894 40.39179992675781 3.220381259918213 L 40.641845703125 3.329070091247559 C 41.90723419189453 3.879092216491699 43.24843215942383 4.157969951629639 44.62818908691406 4.157969951629639 C 44.99384307861328 4.157969951629639 45.36355590820312 4.137603282928467 45.72703170776367 4.097414493560791 L 45.99737930297852 4.067514419555664 C 46.21561050415039 4.043392181396484 46.43753433227539 4.031158924102783 46.65693283081055 4.031158924102783 C 48.09012222290039 4.031158924102783 49.47830963134766 4.545492172241211 50.56577682495117 5.479403495788574 L 50.77866744995117 5.662247657775879 C 52.09807968139648 6.795370101928711 53.69822311401367 7.567847728729248 55.40615463256836 7.896170139312744 L 55.67991256713867 7.948792457580566 C 57.30465698242188 8.261114120483398 58.74221038818359 9.24310302734375 59.6240234375 10.64298152923584 L 59.78028869628906 10.89104747772217 C 60.70585632324219 12.36039257049561 62.00504302978516 13.56879234313965 63.53742218017578 14.38566970825195 L 63.79402160644531 14.52245903015137 C 65.25160980224609 15.29946994781494 66.33429718017578 16.65972518920898 66.76450347900391 18.25444793701172 L 66.84416961669922 18.54979133605957 C 67.29573059082031 20.22371482849121 68.179931640625 21.75891494750977 69.40119171142578 22.98949241638184 L 69.61528015136719 23.20519256591797 C 70.77706909179688 24.3758373260498 71.41040802001953 25.9926586151123 71.35284423828125 27.64104843139648 L 71.34188079833984 27.95522499084473 C 71.28144073486328 29.68595886230469 71.67434692382812 31.41158103942871 72.47811126708984 32.94551467895508 L 72.62353515625 33.22303771972656 C 73.38848876953125 34.68291473388672 73.51793670654297 36.41348266601562 72.97865295410156 37.97098159790039 L 72.87538909912109 38.26919174194336 C 72.30889129638672 39.90525817871094 72.17697906494141 41.66970443725586 72.49391937255859 43.37179183959961 L 72.55176544189453 43.68243789672852 C 72.85355377197266 45.30316925048828 72.46800994873047 46.99557113647461 71.49400329589844 48.32567977905273 L 71.31128692626953 48.57519149780273 C 70.28763580322266 49.97309112548828 69.64214324951172 51.62179183959961 69.44460296630859 53.34304809570312 L 69.40914154052734 53.65185928344727 C 69.220947265625 55.2916145324707 68.35348510742188 56.79695892333984 67.02919769287109 57.78200149536133 L 66.79058074951172 57.95948028564453 C 65.39832305908203 58.99509048461914 64.29457855224609 60.38252639770508 63.59856796264648 61.97184753417969 L 63.47829055786133 62.24651336669922 C 62.81514358520508 63.76080322265625 61.54094314575195 64.94535827636719 59.9824104309082 65.4964599609375 L 59.71425628662109 65.59127044677734 C 58.07580184936523 66.17060089111328 56.60982131958008 67.17251586914062 55.47484588623047 68.48867797851562 L 55.28760147094727 68.70583343505859 C 54.2064094543457 69.95962524414062 52.63747787475586 70.71663665771484 50.983154296875 70.78268432617188 L 50.70892333984375 70.79362487792969 C 48.97008895874023 70.86305999755859 47.27164459228516 71.38823699951172 45.79714584350586 72.3123779296875 L 45.56338882446289 72.45887756347656 C 44.60722351074219 73.05816650390625 43.50526809692383 73.37493896484375 42.37664413452148 73.37496185302734 Z" stroke="none"/>
        <path d="M 37.9999885559082 4.723037719726562 C 37.44809341430664 4.723037719726562 36.91162490844727 4.834587097167969 36.40539932250977 5.05462646484375 L 36.15536117553711 5.163307189941406 C 34.63687896728516 5.823333740234375 33.0274543762207 6.157981872558594 31.37177276611328 6.157981872558594 C 30.93299865722656 6.157981872558594 30.48936080932617 6.133529663085938 30.05298614501953 6.085289001464844 L 29.78293228149414 6.055427551269531 C 29.63721466064453 6.039321899414062 29.48926544189453 6.031158447265625 29.34321212768555 6.031158447265625 C 28.38765335083008 6.031196594238281 27.46217346191406 6.374092102050781 26.73720169067383 6.9967041015625 L 26.52430725097656 7.179542541503906 C 24.9410514831543 8.539268493652344 23.02088165283203 9.466224670410156 20.97137451171875 9.860221862792969 L 20.69758605957031 9.912849426269531 C 19.61444091796875 10.12106323242188 18.65606689453125 10.77573394775391 18.06821441650391 11.70894622802734 L 17.91190719604492 11.95709228515625 C 16.80125427246094 13.72025299072266 15.24222564697266 15.17033386230469 13.40335845947266 16.15060043334961 L 13.14674758911133 16.28738403320312 C 12.17504119873047 16.80538558959961 11.45325469970703 17.71221160888672 11.16646575927734 18.77531814575195 L 11.08677673339844 19.07077407836914 C 10.54490661621094 21.07941055297852 9.483863830566406 22.92165374755859 8.018424987792969 24.39827728271484 L 7.804344177246094 24.61399841308594 C 7.02978515625 25.39446640014648 6.607559204101562 26.47233200073242 6.645950317382812 27.5713996887207 L 6.656890869140625 27.88542556762695 C 6.729423522949219 29.9622802734375 6.257949829101562 32.03301239013672 5.293411254882812 33.87381362915039 L 5.14801025390625 34.15127944946289 C 4.638038635253906 35.12455749511719 4.551750183105469 36.27826690673828 4.911270141601562 37.31660079956055 L 5.014533996582031 37.61481094360352 C 5.6943359375 39.57809066772461 5.852615356445312 41.69542694091797 5.472267150878906 43.738037109375 L 5.414436340332031 44.04853057861328 C 5.2132568359375 45.1290397644043 5.470283508300781 46.25731658935547 6.119636535644531 47.14408111572266 L 6.302322387695312 47.39354705810547 C 7.530677795410156 49.07097244262695 8.305282592773438 51.04941177368164 8.5423583984375 53.11498641967773 L 8.577812194824219 53.42385101318359 C 8.703277587890625 54.51698303222656 9.281585693359375 55.52056121826172 10.16445159912109 56.17725372314453 L 10.40312194824219 56.35478591918945 C 12.07373428344727 57.597412109375 13.39822769165039 59.26233291625977 14.23342514038086 61.16949462890625 L 14.3537483215332 61.44423675537109 C 14.79582595825195 62.4537467956543 15.64529418945312 63.24343872070312 16.68434524536133 63.6108512878418 L 16.95243835449219 63.70565032958984 C 18.91862487792969 64.40087890625 20.67779922485352 65.60318756103516 22.03971862792969 67.18253326416016 L 22.22695922851562 67.39966583251953 C 22.94777297973633 68.23555755615234 23.99373245239258 68.74022674560547 25.09656143188477 68.78426361083984 L 25.37093353271484 68.79521179199219 C 27.45746612548828 68.87853240966797 29.49560165405273 69.50874328613281 31.26494598388672 70.61769104003906 L 31.49877166748047 70.76425170898438 C 32.13619995117188 71.16377258300781 32.87085342407227 71.37494659423828 33.62329483032227 71.37494659423828 C 33.97018814086914 71.37494659423828 34.31618499755859 71.32968139648438 34.65167999267578 71.24038696289062 L 34.91389465332031 71.17060852050781 C 36.92663192749023 70.63496398925781 39.07334518432617 70.63497161865234 41.08606719970703 71.17060089111328 L 41.3482551574707 71.24037170410156 C 41.68379974365234 71.32966613769531 42.02981185913086 71.37494659423828 42.37669372558594 71.37494659423828 C 43.12911987304688 71.37494659423828 43.86378479003906 71.16375732421875 44.50128173828125 70.76419830322266 L 44.7349853515625 70.61772918701172 C 46.50438690185547 69.50874328613281 48.54253387451172 68.87853240966797 50.62914657592773 68.79522705078125 L 50.90337371826172 68.78427886962891 C 52.00624084472656 68.74024200439453 53.05218505859375 68.23557281494141 53.77297210693359 67.39971923828125 L 53.96023941040039 67.18255615234375 C 55.32218933105469 65.60318756103516 57.08135986328125 64.40089416503906 59.04745483398438 63.70569229125977 L 59.31566619873047 63.6108512878418 C 60.35469436645508 63.24346542358398 61.20414733886719 62.45375823974609 61.64626693725586 61.44418334960938 L 61.76653289794922 61.16955947875977 C 62.60174560546875 59.26235961914062 63.92623901367188 57.59743881225586 65.59696197509766 56.35470581054688 L 65.83555603027344 56.17725372314453 C 66.71841430664062 55.52057266235352 67.29670715332031 54.51699829101562 67.42218780517578 53.4237060546875 L 67.4576416015625 53.11497497558594 C 67.69471740722656 51.04942321777344 68.46930694580078 49.07098388671875 69.69766998291016 47.39356994628906 L 69.88038635253906 47.14405059814453 C 70.52971649169922 46.25731658935547 70.7867431640625 45.12905120849609 70.58554840087891 44.04849243164062 L 70.52771759033203 43.73791885375977 C 70.14736938476562 41.69537353515625 70.3056640625 39.57802581787109 70.98545074462891 37.61489105224609 L 71.08872985839844 37.31657409667969 C 71.44824981689453 36.27825164794922 71.36196136474609 35.12454605102539 70.85199737548828 34.15130615234375 L 70.70657348632812 33.87377166748047 C 69.74204254150391 32.03302383422852 69.27056121826172 29.9622802734375 69.34309387207031 27.8853874206543 L 69.35406494140625 27.57125091552734 C 69.39244079589844 26.47233200073242 68.97019958496094 25.39442443847656 68.19566345214844 24.61398696899414 L 67.98164367675781 24.39833068847656 C 66.51612091064453 22.92165374755859 65.45506286621094 21.07939910888672 64.91318511962891 19.0706787109375 L 64.83351898193359 18.77534484863281 C 64.54672241210938 17.71218490600586 63.82493209838867 16.80535888671875 62.85324096679688 16.28737258911133 L 62.59658813476562 16.15055847167969 C 60.75773239135742 15.17030715942383 59.19870758056641 13.7202262878418 58.08805084228516 11.95705413818359 L 57.9317741394043 11.70896148681641 C 57.34390640258789 10.77570343017578 56.38553619384766 10.12104034423828 55.30239868164062 9.912826538085938 L 55.02862548828125 9.860198974609375 C 52.97914886474609 9.466239929199219 51.0589599609375 8.539276123046875 49.47566604614258 7.179542541503906 L 49.26271820068359 6.996665954589844 C 48.53773498535156 6.374038696289062 47.61233520507812 6.031143188476562 46.65694427490234 6.031158447265625 C 46.51069259643555 6.031158447265625 46.36267852783203 6.039321899414062 46.21707916259766 6.055412292480469 L 45.94683837890625 6.085289001464844 C 45.51065063476562 6.133522033691406 45.06698608398438 6.157974243164062 44.628173828125 6.157974243164062 C 42.97248077392578 6.157974243164062 41.36304092407227 5.823318481445312 39.84452056884766 5.16326904296875 L 39.59452056884766 5.054595947265625 C 39.08835983276367 4.834602355957031 38.5518798828125 4.723037719726562 37.9999885559082 4.723037719726562 M 37.99999237060547 0.7230377197265625 C 39.08599472045898 0.7230377197265625 40.17199325561523 0.9440765380859375 41.18905258178711 1.386161804199219 L 41.43910598754883 1.494850158691406 C 42.71839141845703 2.050910949707031 44.12082672119141 2.2628173828125 45.50726699829102 2.109519958496094 L 45.77754592895508 2.079635620117188 C 47.98111724853516 1.836044311523438 50.18693542480469 2.517730712890625 51.86879730224609 3.962135314941406 L 52.08174896240234 4.145011901855469 C 53.13899993896484 5.052986145019531 54.41511917114258 5.669036865234375 55.78370666503906 5.932121276855469 L 56.05747985839844 5.984748840332031 C 58.23202514648438 6.402755737304688 60.13603973388672 7.703384399414062 61.31626892089844 9.576995849609375 L 61.47256088256836 9.825119018554688 C 62.21425247192383 11.00255584716797 63.25025177001953 11.96615600585938 64.47824096679688 12.62077331542969 L 64.73486328125 12.75757217407227 C 66.68595886230469 13.79765319824219 68.11959838867188 15.59883880615234 68.69546508789062 17.7335319519043 L 68.775146484375 18.0289192199707 C 69.13702392578125 19.37038421630859 69.842041015625 20.59446716308594 70.82077026367188 21.58065414428711 L 71.0347900390625 21.79629135131836 C 72.5902099609375 23.36358642578125 73.42868041992188 25.50407791137695 73.35162353515625 27.71083831787109 L 73.34065246582031 28.0250129699707 C 73.29221343994141 29.41206741333008 73.60546875 30.78787994384766 74.24964141845703 32.01723861694336 L 74.39505004882812 32.29474639892578 C 75.41922760009766 34.24933242797852 75.590576171875 36.54015731811523 74.86856079101562 38.62535858154297 L 74.76529693603516 38.92361068725586 C 74.31126403808594 40.23479843139648 74.20610809326172 41.64154434204102 74.46012115478516 43.00566482543945 L 74.51795959472656 43.31631851196289 C 74.9219970703125 45.48617172241211 74.41163635253906 47.72654724121094 73.10761260986328 49.50730514526367 L 72.92489624023438 49.75682830810547 C 72.10453033447266 50.87709045410156 71.58988189697266 52.19161224365234 71.43154907226562 53.57109069824219 L 71.39608001708984 53.87998580932617 C 71.14414978027344 56.07501220703125 69.99563598632812 58.06810760498047 68.22283935546875 59.38674545288086 L 67.98414611816406 59.56427764892578 C 66.86847686767578 60.39414596557617 65.98837280273438 61.50045013427734 65.43060302734375 62.77413177490234 L 65.310302734375 63.04881286621094 C 64.42269134521484 65.07567596435547 62.73526763916016 66.64440155029297 60.64913177490234 67.38204193115234 L 60.38101196289062 67.47685241699219 C 59.06801605224609 67.94111633300781 57.89896011352539 68.74010467529297 56.98946380615234 69.79478454589844 L 56.80226898193359 70.01187896728516 C 55.3552131652832 71.68994903564453 53.27700042724609 72.69269561767578 51.06294631958008 72.78108978271484 L 50.78865051269531 72.79203796386719 C 49.39536285400391 72.84766387939453 48.04080200195312 73.26650238037109 46.85927963256836 74.00704193115234 L 46.62551879882812 74.15354919433594 C 44.74638748168945 75.33130645751953 42.46268844604492 75.67617034912109 40.31957244873047 75.10584259033203 L 40.05738830566406 75.03606414794922 C 38.70925140380859 74.67729187011719 37.29073715209961 74.67729187011719 35.94258499145508 75.03606414794922 L 35.68041229248047 75.10584259033203 C 33.53730010986328 75.67617034912109 31.25358581542969 75.33130645751953 29.37446594238281 74.15354919433594 L 29.14070510864258 74.00704193115234 C 27.95917510986328 73.26650238037109 26.6046257019043 72.84766387939453 25.21131896972656 72.79202270507812 L 24.93703842163086 72.78108215332031 C 22.72297286987305 72.69266510009766 20.64476013183594 71.68994903564453 19.19770812988281 70.01186370849609 L 19.01050567626953 69.79478454589844 C 18.10101318359375 68.74008941650391 16.93197250366211 67.94110870361328 15.61897277832031 67.47683715820312 L 15.3508415222168 67.38202667236328 C 13.26472091674805 66.64438629150391 11.57727813720703 65.07566833496094 10.68968200683594 63.04879760742188 L 10.56938934326172 62.77412033081055 C 10.01161193847656 61.50043869018555 9.131507873535156 60.39413452148438 8.015838623046875 59.56427764892578 L 7.777145385742188 59.38673400878906 C 6.004356384277344 58.06809234619141 4.855850219726562 56.07499694824219 4.603904724121094 53.87998580932617 L 4.568450927734375 53.57109069824219 C 4.410118103027344 52.19161224365234 3.895469665527344 50.87709045410156 3.075096130371094 49.75681304931641 L 2.892387390136719 49.50730514526367 C 1.588371276855469 47.72655868530273 1.0780029296875 45.48617172241211 1.482025146484375 43.31631851196289 L 1.539878845214844 43.00568008422852 C 1.793891906738281 41.64154434204102 1.688720703125 40.23481369018555 1.234703063964844 38.92361068725586 L 1.131439208984375 38.62537384033203 C 0.409423828125 36.5401725769043 0.5807723999023438 34.24934387207031 1.604949951171875 32.29475784301758 L 1.750358581542969 32.01725387573242 C 2.394523620605469 30.78789138793945 2.707771301269531 29.41209411621094 2.659332275390625 28.0250244140625 L 2.64837646484375 27.71085357666016 C 2.571304321289062 25.50407791137695 3.409774780273438 23.36359786987305 4.9652099609375 21.79631805419922 L 5.179229736328125 21.58066558837891 C 6.157943725585938 20.59447860717773 6.862945556640625 19.37039947509766 7.224822998046875 18.02894592285156 L 7.30450439453125 17.73355865478516 C 7.88037109375 15.5988655090332 9.314010620117188 13.79767990112305 11.26510620117188 12.75759887695312 L 11.52173614501953 12.62080001831055 C 12.74972152709961 11.9661865234375 13.78572082519531 11.00257110595703 14.52741241455078 9.82513427734375 L 14.68370819091797 9.577011108398438 C 15.86393356323242 7.703414916992188 17.76794815063477 6.402786254882812 19.9424934387207 5.984771728515625 L 20.21625518798828 5.932144165039062 C 21.5848388671875 5.669052124023438 22.86095809936523 5.053009033203125 23.918212890625 4.145027160644531 L 24.13114547729492 3.962158203125 C 25.81301498413086 2.517745971679688 28.01885604858398 1.836021423339844 30.2224006652832 2.079635620117188 L 30.49269485473633 2.109535217285156 C 31.87913131713867 2.262794494628906 33.28155899047852 2.050910949707031 34.56082534790039 1.494865417480469 L 34.81093215942383 1.386161804199219 C 35.8279914855957 0.9440765380859375 36.91399383544922 0.7230377197265625 37.99999237060547 0.7230377197265625 Z" stroke="none" fill="#2049b9"/>
      </g>
      <g id="Ellipse_182" data-name="Ellipse 182" transform="translate(1438 395)" fill="none" stroke="#2049b9" stroke-width="5">
        <circle cx="25" cy="25" r="25" stroke="none"/>
        <circle cx="25" cy="25" r="22.5" fill="none"/>
      </g>
    </g>
    <rect id="Rectangle_5" data-name="Rectangle 5" width="100" height="71" rx="6" transform="translate(1432 154)" fill="#092a86"/>
    <path id="Path_819" data-name="Path 819" d="M6,0H78a6,6,0,0,1,6,6V46a6,6,0,0,1-6,6H6a6,6,0,0,1-6-6V6A6,6,0,0,1,6,0Z" transform="translate(1171 211)" fill="#5b7cd8"/>
    <path id="Path_820" data-name="Path 820" d="M3.136,0H40.762A3.136,3.136,0,0,1,43.9,3.136v20.9a3.136,3.136,0,0,1-3.136,3.136H3.136A3.136,3.136,0,0,1,0,24.039V3.136A3.136,3.136,0,0,1,3.136,0Z" transform="translate(1450.103 269.508)" fill="#5b7cd8"/>
    <g id="Group_2336" data-name="Group 2336" transform="translate(1456.29 163.822)">
      <path id="noun-like-4137473" d="M156.6,95.939c0,.078-.02.137-.02.2s.02.117.02.176Zm-1.388-12.108H140.718a3.168,3.168,0,0,1-3.169-3.169v-6.1A6.336,6.336,0,0,0,131,68.223a3.158,3.158,0,0,0-2.973,3.169v6.357c0,4.5-6.357,7.667-6.357,10.855v20.3a3.158,3.158,0,0,0,1.682,2.8c.587.313,1.271.665,1.976,1.056a23.8,23.8,0,0,0,11.246,2.816h12.283a4.549,4.549,0,0,0,4.557-4.557v-.411a4.429,4.429,0,0,0-.528-2.093A4.511,4.511,0,0,0,155,104.681v-1.213a4.52,4.52,0,0,0-1.389-3.267,4.185,4.185,0,0,0,1.819-6.865,4.539,4.539,0,0,0,4.323-4.538v-.429a4.516,4.516,0,0,0-4.537-4.538Z" transform="translate(-106.004 -68.22)" fill="#f7f9ff"/>
      <path id="noun-like-4137473-2" data-name="noun-like-4137473" d="M116.916,85.416H105.806a.789.789,0,0,0-.8.782V111.6a.805.805,0,0,0,.8.8h11.109a.805.805,0,0,0,.8-.8V86.2A.815.815,0,0,0,116.916,85.416Zm-5.555,22.219a2.386,2.386,0,1,1,2.386-2.386A2.4,2.4,0,0,1,111.361,107.635Z" transform="translate(-105.004 -67.22)" fill="#bacdff"/>
    </g>
    <g id="Group_2339" data-name="Group 2339" transform="translate(1 6)">
      <rect id="Rectangle_647" data-name="Rectangle 647" width="59" height="42" rx="4" transform="translate(1187 339)" fill="#1841b2"/>
      <g id="Group_2338" data-name="Group 2338" transform="translate(1201 346)">
        <path id="noun-like-4137473-3" data-name="noun-like-4137473" d="M142.387,84.661c0,.046-.012.081-.012.116s.012.07.012.1Zm-.823-7.181h-8.6a1.879,1.879,0,0,1-1.879-1.879V71.981a3.758,3.758,0,0,0-3.886-3.759,1.873,1.873,0,0,0-1.763,1.879v3.77c0,2.668-3.77,4.548-3.77,6.439V92.352a1.873,1.873,0,0,0,1,1.659c.348.186.754.394,1.172.626a14.114,14.114,0,0,0,6.67,1.67h7.285a2.7,2.7,0,0,0,2.7-2.7v-.244a2.627,2.627,0,0,0-.313-1.241,2.676,2.676,0,0,0,1.253-2.274v-.719a2.681,2.681,0,0,0-.824-1.937,2.482,2.482,0,0,0,1.079-4.072,2.692,2.692,0,0,0,2.564-2.692v-.255a2.679,2.679,0,0,0-2.691-2.692Z" transform="translate(-112.377 -68.22)" fill="#f7f9ff"/>
        <path id="noun-like-4137473-4" data-name="noun-like-4137473" d="M112.069,85.416H105.48a.468.468,0,0,0-.476.464v15.069a.478.478,0,0,0,.476.476h6.589a.478.478,0,0,0,.476-.476V85.88A.483.483,0,0,0,112.069,85.416Zm-3.295,13.179a1.415,1.415,0,1,1,1.415-1.415A1.421,1.421,0,0,1,108.775,98.595Z" transform="translate(-105.004 -74.623)" fill="#bacdff"/>
      </g>
    </g>
    <g id="Group_2345" data-name="Group 2345" transform="translate(-113 -51)">
      <rect id="Rectangle_647-2" data-name="Rectangle 647" width="59" height="42" rx="4" transform="translate(1187 339)" fill="#1841b2"/>
      <g id="Group_2338-2" data-name="Group 2338" transform="translate(1201 346)">
        <path id="noun-like-4137473-5" data-name="noun-like-4137473" d="M142.387,84.661c0,.046-.012.081-.012.116s.012.07.012.1Zm-.823-7.181h-8.6a1.879,1.879,0,0,1-1.879-1.879V71.981a3.758,3.758,0,0,0-3.886-3.759,1.873,1.873,0,0,0-1.763,1.879v3.77c0,2.668-3.77,4.548-3.77,6.439V92.352a1.873,1.873,0,0,0,1,1.659c.348.186.754.394,1.172.626a14.114,14.114,0,0,0,6.67,1.67h7.285a2.7,2.7,0,0,0,2.7-2.7v-.244a2.627,2.627,0,0,0-.313-1.241,2.676,2.676,0,0,0,1.253-2.274v-.719a2.681,2.681,0,0,0-.824-1.937,2.482,2.482,0,0,0,1.079-4.072,2.692,2.692,0,0,0,2.564-2.692v-.255a2.679,2.679,0,0,0-2.691-2.692Z" transform="translate(-112.377 -68.22)" fill="#f7f9ff"/>
        <path id="noun-like-4137473-6" data-name="noun-like-4137473" d="M112.069,85.416H105.48a.468.468,0,0,0-.476.464v15.069a.478.478,0,0,0,.476.476h6.589a.478.478,0,0,0,.476-.476V85.88A.483.483,0,0,0,112.069,85.416Zm-3.295,13.179a1.415,1.415,0,1,1,1.415-1.415A1.421,1.421,0,0,1,108.775,98.595Z" transform="translate(-105.004 -74.623)" fill="#bacdff"/>
      </g>
    </g>
    <g id="Group_2347" data-name="Group 2347" transform="translate(351 33)">
      <rect id="Rectangle_647-3" data-name="Rectangle 647" width="47" height="34" rx="2" transform="translate(1187 339)" fill="#1841b2"/>
      <g id="Group_2338-3" data-name="Group 2338" transform="translate(1198.25 344.625)">
        <path id="noun-like-4137473-7" data-name="noun-like-4137473" d="M138.317,81.431c0,.037-.009.065-.009.093s.009.056.009.084Zm-.662-5.771h-6.908a1.51,1.51,0,0,1-1.51-1.51V71.242a3.02,3.02,0,0,0-3.123-3.02,1.505,1.505,0,0,0-1.417,1.51v3.03c0,2.144-3.03,3.654-3.03,5.174v9.676a1.505,1.505,0,0,0,.8,1.333c.28.149.606.317.942.5a11.341,11.341,0,0,0,5.36,1.342h5.854a2.168,2.168,0,0,0,2.172-2.172v-.2a2.111,2.111,0,0,0-.252-1,2.15,2.15,0,0,0,1.007-1.827V85.02a2.154,2.154,0,0,0-.662-1.557,1.995,1.995,0,0,0,.867-3.272,2.163,2.163,0,0,0,2.06-2.163v-.2a2.152,2.152,0,0,0-2.163-2.163Z" transform="translate(-114.202 -68.22)" fill="#f7f9ff"/>
        <path id="noun-like-4137473-8" data-name="noun-like-4137473" d="M110.681,85.416h-5.295a.376.376,0,0,0-.382.373V97.9a.384.384,0,0,0,.382.382h5.295a.384.384,0,0,0,.382-.382V85.789A.388.388,0,0,0,110.681,85.416Zm-2.647,10.59a1.137,1.137,0,1,1,1.137-1.137A1.142,1.142,0,0,1,108.034,96.006Z" transform="translate(-105.004 -76.743)" fill="#bacdff"/>
      </g>
    </g>
    <g id="Group_2337" data-name="Group 2337" transform="translate(1194.228 220.459)">
      <path id="noun-like-4137473-9" data-name="noun-like-4137473" d="M146.071,81.938c0-.055-.014-.1-.014-.137s.014-.082.014-.123ZM145.1,90.4H134.976a2.213,2.213,0,0,0-2.214,2.214v4.263a4.426,4.426,0,0,1-4.577,4.427,2.206,2.206,0,0,1-2.077-2.214V94.645c0-3.143-4.441-5.356-4.441-7.583V72.879a2.206,2.206,0,0,1,1.175-1.954c.41-.219.888-.464,1.38-.738a16.623,16.623,0,0,1,7.856-1.967h8.581a3.178,3.178,0,0,1,3.183,3.183v.287a3.094,3.094,0,0,1-.369,1.462,3.151,3.151,0,0,1,1.476,2.678v.847a3.157,3.157,0,0,1-.97,2.282,2.924,2.924,0,0,1,1.271,4.8,3.171,3.171,0,0,1,3.02,3.17v.3a3.155,3.155,0,0,1-3.17,3.17Z" transform="translate(-110.726 -68.22)" fill="#f7f9ff"/>
      <path id="noun-like-4137473-10" data-name="noun-like-4137473" d="M113.325,104.271h-7.761a.551.551,0,0,1-.56-.547V85.976a.563.563,0,0,1,.56-.56h7.761a.563.563,0,0,1,.56.56v17.749A.569.569,0,0,1,113.325,104.271Zm-3.88-15.522a1.667,1.667,0,1,0,1.667,1.667A1.674,1.674,0,0,0,109.445,88.749Z" transform="translate(-105.004 -83.901)" fill="#bacdff"/>
    </g>
    <g id="Group_2346" data-name="Group 2346" transform="translate(1462.241 274.451)">
      <path id="noun-like-4137473-11" data-name="noun-like-4137473" d="M134.42,75.389c0-.029-.007-.05-.007-.071s.007-.043.007-.064Zm-.507,4.42h-5.291a1.157,1.157,0,0,0-1.157,1.157v2.228a2.313,2.313,0,0,1-2.392,2.313,1.153,1.153,0,0,1-1.085-1.157V82.029c0-1.642-2.321-2.8-2.321-3.963V70.655a1.153,1.153,0,0,1,.614-1.021c.214-.114.464-.243.721-.386a8.687,8.687,0,0,1,4.106-1.028h4.484a1.661,1.661,0,0,1,1.664,1.664v.15a1.617,1.617,0,0,1-.193.764,1.647,1.647,0,0,1,.771,1.4v.443a1.65,1.65,0,0,1-.507,1.193,1.528,1.528,0,0,1,.664,2.506A1.657,1.657,0,0,1,135.57,78v.157a1.649,1.649,0,0,1-1.656,1.657Z" transform="translate(-115.949 -68.22)" fill="#f7f9ff"/>
      <path id="noun-like-4137473-12" data-name="noun-like-4137473" d="M109.353,95.269H105.3a.288.288,0,0,1-.293-.286V85.709a.294.294,0,0,1,.293-.293h4.056a.294.294,0,0,1,.293.293v9.275A.3.3,0,0,1,109.353,95.269Zm-2.028-8.112a.871.871,0,1,0,.871.871A.875.875,0,0,0,107.325,87.158Z" transform="translate(-105.004 -84.624)" fill="#bacdff"/>
    </g>
    <g id="noun-check-4574820" transform="translate(1270.44 273.655)">
      <path id="Path_818" data-name="Path 818" d="M156.957,120.135l-18.2,18.2-8.146-8.146A2.7,2.7,0,0,0,126.8,134l10.053,10.053a2.693,2.693,0,0,0,3.813,0l20.105-20.105a2.7,2.7,0,1,0-3.813-3.813Z" transform="translate(0)" fill="#fff"/>
    </g>
  </g>
</svg>
