<svg xmlns="http://www.w3.org/2000/svg" width="30.004" height="30.001" viewBox="0 0 30.004 30.001">
  <g id="Reddit" transform="translate(-5050 681.001)">
    <rect id="Rectangle_75" data-name="Rectangle 75" width="30" height="30" transform="translate(5050 -681)" fill="none"/>
    <path id="Icon_awesome-reddit" data-name="Icon awesome-reddit" d="M12.266,18.556a1.5,1.5,0,1,1,1.488-1.488,1.5,1.5,0,0,1-1.488,1.488Zm18.3-2.994a15,15,0,1,1-15-15,15,15,0,0,1,15,15Zm-8-2.492a2.024,2.024,0,0,0-1.44.6,9.779,9.779,0,0,0-5.208-1.609L16.97,7.325l3.351.756A1.491,1.491,0,0,0,21.8,9.575,1.506,1.506,0,1,0,20.468,7.4l-3.7-.823a.357.357,0,0,0-.417.266L15.2,12.069a9.866,9.866,0,0,0-5.171,1.621A2,2,0,1,0,7.7,16.871a4.365,4.365,0,0,0-.1.938c0,3.181,3.581,5.758,7.984,5.758,4.421,0,8-2.577,8-5.758a3.864,3.864,0,0,0-.115-.956,2,2,0,0,0-.9-3.78ZM18.393,20.1c-1.1,1.1-4.6,1.083-5.661,0a.366.366,0,0,0-.5,0,.355.355,0,0,0,0,.52c1.377,1.38,5.278,1.38,6.668,0a.355.355,0,0,0,0-.52A.366.366,0,0,0,18.393,20.1Zm.466-4.536A1.493,1.493,0,1,0,19.928,16a1.5,1.5,0,0,0-1.069-.437Z" transform="translate(5049.438 -681.563)" fill="#2149b9"/>
  </g>
</svg>
