<svg xmlns="http://www.w3.org/2000/svg" width="158" height="158" viewBox="0 0 158 158">
  <g id="Step3" transform="translate(-1041 -971)">
    <g id="Ellipse_185" data-name="Ellipse 185" transform="translate(1041 971)" fill="#ebf1ff" stroke="#bacdff" stroke-width="1">
      <circle cx="79" cy="79" r="79" stroke="none"/>
      <circle cx="79" cy="79" r="78.5" fill="none"/>
    </g>
    <g id="Group_2354" data-name="Group 2354">
      <g id="Group_2353" data-name="Group 2353" transform="translate(330)">
        <g id="Rectangle_653" data-name="Rectangle 653" transform="translate(732 1011)" fill="#fff" stroke="#e3e7eb" stroke-width="1">
          <rect width="117" height="79" rx="2" stroke="none"/>
          <rect x="0.5" y="0.5" width="116" height="78" rx="1.5" fill="none"/>
        </g>
        <line id="Line_69" data-name="Line 69" x2="115" transform="translate(732.5 1017.5)" fill="none" stroke="#e3e7eb" stroke-linecap="square" stroke-width="1"/>
        <circle id="Ellipse_190" data-name="Ellipse 190" cx="1.5" cy="1.5" r="1.5" transform="translate(734 1013)" fill="#fa5555"/>
        <circle id="Ellipse_191" data-name="Ellipse 191" cx="1.5" cy="1.5" r="1.5" transform="translate(738 1013)" fill="#f8c248"/>
        <circle id="Ellipse_192" data-name="Ellipse 192" cx="1.5" cy="1.5" r="1.5" transform="translate(742 1013)" fill="#3ab70d"/>
      </g>
    </g>
    <g id="Group_2355" data-name="Group 2355">
      <rect id="Rectangle_658" data-name="Rectangle 658" width="100" height="8" rx="1" transform="translate(1071 1023)" fill="#2049b9"/>
      <line id="Line_70" data-name="Line 70" x2="13" transform="translate(1075.5 1027)" fill="none" stroke="#fff" stroke-linecap="round" stroke-width="1.5"/>
      <line id="Line_71" data-name="Line 71" x2="61" transform="translate(1093.5 1027)" fill="none" stroke="#fff" stroke-linecap="round" stroke-width="1.5"/>
    </g>
    <g id="Group_2356" data-name="Group 2356" transform="translate(0 11)">
      <g id="Rectangle_658-2" data-name="Rectangle 658" transform="translate(1071 1023)" fill="#fff" stroke="#e3e7eb" stroke-width="1">
        <rect width="100" height="8" rx="1" stroke="none"/>
        <rect x="0.5" y="0.5" width="99" height="7" rx="0.5" fill="none"/>
      </g>
      <line id="Line_70-2" data-name="Line 70" x2="13" transform="translate(1075.5 1027)" fill="none" stroke="#e3e7eb" stroke-linecap="round" stroke-width="1.5"/>
      <line id="Line_71-2" data-name="Line 71" x2="61" transform="translate(1093.5 1027)" fill="none" stroke="#e3e7eb" stroke-linecap="round" stroke-width="1.5"/>
    </g>
    <g id="Group_2357" data-name="Group 2357" transform="translate(0 22)">
      <g id="Rectangle_658-3" data-name="Rectangle 658" transform="translate(1071 1023)" fill="#fff" stroke="#e3e7eb" stroke-width="1">
        <rect width="100" height="8" rx="1" stroke="none"/>
        <rect x="0.5" y="0.5" width="99" height="7" rx="0.5" fill="none"/>
      </g>
      <line id="Line_70-3" data-name="Line 70" x2="13" transform="translate(1075.5 1027)" fill="none" stroke="#e3e7eb" stroke-linecap="round" stroke-width="1.5"/>
      <line id="Line_71-3" data-name="Line 71" x2="61" transform="translate(1093.5 1027)" fill="none" stroke="#e3e7eb" stroke-linecap="round" stroke-width="1.5"/>
    </g>
    <g id="Group_2358" data-name="Group 2358" transform="translate(0 33)">
      <g id="Rectangle_658-4" data-name="Rectangle 658" transform="translate(1071 1023)" fill="#fff" stroke="#e3e7eb" stroke-width="1">
        <rect width="100" height="8" rx="1" stroke="none"/>
        <rect x="0.5" y="0.5" width="99" height="7" rx="0.5" fill="none"/>
      </g>
      <line id="Line_70-4" data-name="Line 70" x2="13" transform="translate(1075.5 1027)" fill="none" stroke="#e3e7eb" stroke-linecap="round" stroke-width="1.5"/>
      <line id="Line_71-4" data-name="Line 71" x2="61" transform="translate(1093.5 1027)" fill="none" stroke="#e3e7eb" stroke-linecap="round" stroke-width="1.5"/>
    </g>
    <g id="Group_2359" data-name="Group 2359" transform="translate(0 44)">
      <g id="Rectangle_658-5" data-name="Rectangle 658" transform="translate(1071 1023)" fill="#fff" stroke="#e3e7eb" stroke-width="1">
        <rect width="100" height="8" rx="1" stroke="none"/>
        <rect x="0.5" y="0.5" width="99" height="7" rx="0.5" fill="none"/>
      </g>
      <line id="Line_70-5" data-name="Line 70" x2="13" transform="translate(1075.5 1027)" fill="none" stroke="#e3e7eb" stroke-linecap="round" stroke-width="1.5"/>
      <line id="Line_71-5" data-name="Line 71" x2="61" transform="translate(1093.5 1027)" fill="none" stroke="#e3e7eb" stroke-linecap="round" stroke-width="1.5"/>
    </g>
  </g>
</svg>
