<svg xmlns="http://www.w3.org/2000/svg" width="158" height="158" viewBox="0 0 158 158">
  <g id="Step4" transform="translate(-1371 -971)">
    <g id="Ellipse_186" data-name="Ellipse 186" transform="translate(1371 971)" fill="#ebf1ff" stroke="#bacdff" stroke-width="1">
      <circle cx="79" cy="79" r="79" stroke="none"/>
      <circle cx="79" cy="79" r="78.5" fill="none"/>
    </g>
    <g id="Group_2360" data-name="Group 2360" transform="translate(330)">
      <g id="Group_2353" data-name="Group 2353" transform="translate(330)">
        <g id="Rectangle_653" data-name="Rectangle 653" transform="translate(732 1011)" fill="#fff" stroke="#e3e7eb" stroke-width="1">
          <rect width="117" height="79" rx="2" stroke="none"/>
          <rect x="0.5" y="0.5" width="116" height="78" rx="1.5" fill="none"/>
        </g>
        <line id="Line_69" data-name="Line 69" x2="115" transform="translate(732.5 1017.5)" fill="none" stroke="#e3e7eb" stroke-linecap="square" stroke-width="1"/>
        <circle id="Ellipse_190" data-name="Ellipse 190" cx="1.5" cy="1.5" r="1.5" transform="translate(734 1013)" fill="#fa5555"/>
        <circle id="Ellipse_191" data-name="Ellipse 191" cx="1.5" cy="1.5" r="1.5" transform="translate(738 1013)" fill="#f8c248"/>
        <circle id="Ellipse_192" data-name="Ellipse 192" cx="1.5" cy="1.5" r="1.5" transform="translate(742 1013)" fill="#3ab70d"/>
      </g>
    </g>
    <g id="Group_2361" data-name="Group 2361" transform="translate(330 4)">
      <g id="Rectangle_658" data-name="Rectangle 658" transform="translate(1071 1023)" fill="#fff" stroke="#e3e7eb" stroke-width="1">
        <rect width="48" height="8" rx="1" stroke="none"/>
        <rect x="0.5" y="0.5" width="47" height="7" rx="0.5" fill="none"/>
      </g>
      <line id="Line_71" data-name="Line 71" x2="31" transform="translate(1083.5 1027)" fill="none" stroke="#e3e7eb" stroke-linecap="round" stroke-width="1.5"/>
    </g>
    <rect id="Rectangle_658-2" data-name="Rectangle 658" width="48" height="23" rx="1" transform="translate(1454 1027)" fill="#2049b9"/>
    <g id="Rectangle_659" data-name="Rectangle 659" transform="translate(1454 1052)" fill="#fff" stroke="#2049b9" stroke-width="1">
      <rect width="48" height="23" rx="1" stroke="none"/>
      <rect x="0.5" y="0.5" width="47" height="22" rx="0.5" fill="none"/>
    </g>
    <g id="Group_2362" data-name="Group 2362" transform="translate(330 14)">
      <g id="Rectangle_658-3" data-name="Rectangle 658" transform="translate(1071 1023)" fill="#fff" stroke="#e3e7eb" stroke-width="1">
        <rect width="48" height="8" rx="1" stroke="none"/>
        <rect x="0.5" y="0.5" width="47" height="7" rx="0.5" fill="none"/>
      </g>
      <line id="Line_71-2" data-name="Line 71" x2="31" transform="translate(1083.5 1027)" fill="none" stroke="#e3e7eb" stroke-linecap="round" stroke-width="1.5"/>
    </g>
    <g id="Group_2363" data-name="Group 2363" transform="translate(330 24)">
      <g id="Rectangle_658-4" data-name="Rectangle 658" transform="translate(1071 1023)" fill="#fff" stroke="#e3e7eb" stroke-width="1">
        <rect width="48" height="8" rx="1" stroke="none"/>
        <rect x="0.5" y="0.5" width="47" height="7" rx="0.5" fill="none"/>
      </g>
      <line id="Line_71-3" data-name="Line 71" x2="31" transform="translate(1083.5 1027)" fill="none" stroke="#e3e7eb" stroke-linecap="round" stroke-width="1.5"/>
    </g>
    <g id="Group_2364" data-name="Group 2364" transform="translate(330 34)">
      <g id="Rectangle_658-5" data-name="Rectangle 658" transform="translate(1071 1023)" fill="#fff" stroke="#e3e7eb" stroke-width="1">
        <rect width="48" height="8" rx="1" stroke="none"/>
        <rect x="0.5" y="0.5" width="47" height="7" rx="0.5" fill="none"/>
      </g>
      <line id="Line_71-4" data-name="Line 71" x2="31" transform="translate(1083.5 1027)" fill="none" stroke="#e3e7eb" stroke-linecap="round" stroke-width="1.5"/>
    </g>
    <g id="Group_2365" data-name="Group 2365" transform="translate(330 44)">
      <g id="Rectangle_658-6" data-name="Rectangle 658" transform="translate(1071 1023)" fill="#fff" stroke="#e3e7eb" stroke-width="1">
        <rect width="48" height="8" rx="1" stroke="none"/>
        <rect x="0.5" y="0.5" width="47" height="7" rx="0.5" fill="none"/>
      </g>
      <line id="Line_71-5" data-name="Line 71" x2="31" transform="translate(1083.5 1027)" fill="none" stroke="#e3e7eb" stroke-linecap="round" stroke-width="1.5"/>
    </g>
    <g id="cross2" transform="translate(1117.469 812.084)">
      <path id="Path_822" data-name="Path 822" d="M290.419,217.408a.284.284,0,0,0-.4,0l-1.105,1.105-1.105-1.105a.284.284,0,0,0-.4.4l1.105,1.105-1.105,1.105a.284.284,0,0,0,.4.4l1.105-1.105,1.105,1.105a.284.284,0,1,0,.4-.4l-1.105-1.105,1.105-1.105a.284.284,0,0,0,0-.4Z" transform="translate(0)" fill="#e3e7eb" stroke="#e3e7eb" stroke-width="0.3"/>
    </g>
    <g id="cross2-2" data-name="cross2" transform="translate(1117.469 842.084)">
      <path id="Path_822-2" data-name="Path 822" d="M290.419,217.408a.284.284,0,0,0-.4,0l-1.105,1.105-1.105-1.105a.284.284,0,0,0-.4.4l1.105,1.105-1.105,1.105a.284.284,0,0,0,.4.4l1.105-1.105,1.105,1.105a.284.284,0,1,0,.4-.4l-1.105-1.105,1.105-1.105a.284.284,0,0,0,0-.4Z" transform="translate(0)" fill="#e3e7eb" stroke="#e3e7eb" stroke-width="0.3"/>
    </g>
    <path id="Check2" d="M204.609,174.906l-.869-.869a.191.191,0,1,0-.27.27l1.139,1.139,2.182-2.182a.191.191,0,0,0-.27-.27Z" transform="translate(1201.122 867.144)" fill="#e3e7eb" stroke="#e3e7eb" stroke-width="0.5"/>
    <path id="Check2-2" data-name="Check2" d="M204.609,174.906l-.869-.869a.191.191,0,1,0-.27.27l1.139,1.139,2.182-2.182a.191.191,0,0,0-.27-.27Z" transform="translate(1201.122 876.809)" fill="#e3e7eb" stroke="#e3e7eb" stroke-width="0.5"/>
    <path id="Check2-3" data-name="Check2" d="M204.609,174.906l-.869-.869a.191.191,0,1,0-.27.27l1.139,1.139,2.182-2.182a.191.191,0,0,0-.27-.27Z" transform="translate(1201.122 896.809)" fill="#e3e7eb" stroke="#e3e7eb" stroke-width="0.5"/>
    <text id="_60_" data-name="60%" transform="translate(1484 1043)" fill="#fff" font-size="12" font-family="Inter-Regular, Inter"><tspan x="-12" y="0">60%</tspan></text>
    <text id="_40_" data-name="40%" transform="translate(1484 1068)" fill="#2049b9" font-size="12" font-family="Inter-Regular, Inter"><tspan x="-12" y="0">40%</tspan></text>
    <path id="Path_823" data-name="Path 823" d="M293.164,217.482a.536.536,0,0,0-.758,0l-2.085,2.085-2.085-2.085a.536.536,0,0,0-.758.758l2.085,2.085-2.085,2.085a.536.536,0,0,0,.758.758l2.085-2.085,2.085,2.085a.536.536,0,1,0,.758-.758l-2.085-2.085,2.085-2.085a.536.536,0,0,0,0-.758Z" transform="translate(1172.469 842.675)" fill="#2049b9"/>
    <path id="Check2-4" data-name="Check2" d="M205.918,177.06l-1.819-1.819a.4.4,0,0,0-.566.566l2.385,2.385,4.568-4.568a.4.4,0,1,0-.566-.566Z" transform="translate(1256.378 863.144)" fill="#fff" stroke="#fff" stroke-width="0.5"/>
  </g>
</svg>
