<svg xmlns="http://www.w3.org/2000/svg" width="158" height="158" viewBox="0 0 158 158">
  <g id="Step1" transform="translate(-378 -971)">
    <circle id="Ellipse_183" data-name="Ellipse 183" cx="79" cy="79" r="79" transform="translate(378 971)" fill="#ebf1ff"/>
    <g id="Rectangle_648" data-name="Rectangle 648" transform="translate(399 1011)" fill="#fff" stroke="#e3e7eb" stroke-width="1">
      <rect width="117" height="79" rx="2" stroke="none"/>
      <rect x="0.5" y="0.5" width="116" height="78" rx="1.5" fill="none"/>
    </g>
    <line id="Line_68" data-name="Line 68" x2="115" transform="translate(399.5 1017.5)" fill="none" stroke="#e3e7eb" stroke-linecap="square" stroke-width="1"/>
    <circle id="Ellipse_187" data-name="Ellipse 187" cx="1.5" cy="1.5" r="1.5" transform="translate(401 1013)" fill="#fa5555"/>
    <circle id="Ellipse_188" data-name="Ellipse 188" cx="1.5" cy="1.5" r="1.5" transform="translate(405 1013)" fill="#f8c248"/>
    <circle id="Ellipse_189" data-name="Ellipse 189" cx="1.5" cy="1.5" r="1.5" transform="translate(409 1013)" fill="#3ab70d"/>
    <g id="Rectangle_649" data-name="Rectangle 649" transform="translate(476 1011)" fill="#fff" stroke="#bacdff" stroke-width="1">
      <rect width="34" height="50" rx="2" stroke="none"/>
      <rect x="0.5" y="0.5" width="33" height="49" rx="1.5" fill="none"/>
    </g>
    <rect id="Rectangle_650" data-name="Rectangle 650" width="25" height="5" rx="1" transform="translate(481 1047)" fill="#2049b9"/>
    <g id="Rectangle_651" data-name="Rectangle 651" transform="translate(481 1039)" fill="#fff" stroke="#e3e7eb" stroke-width="1">
      <rect width="25" height="5" rx="1" stroke="none"/>
      <rect x="0.5" y="0.5" width="24" height="4" rx="0.5" fill="none"/>
    </g>
    <g id="Rectangle_652" data-name="Rectangle 652" transform="translate(481 1032)" fill="#fff" stroke="#e3e7eb" stroke-width="1">
      <rect width="25" height="5" rx="1" stroke="none"/>
      <rect x="0.5" y="0.5" width="24" height="4" rx="0.5" fill="none"/>
    </g>
    <g id="XDC-Icon-128X128" transform="translate(488 1016)">
      <path id="Combined_Shape" data-name="Combined Shape" d="M5,10A5.039,5.039,0,0,1,1.635,8.717,4.979,4.979,0,0,1,0,5.561L1.13,5,0,4.439A4.979,4.979,0,0,1,1.635,1.283a5.055,5.055,0,0,1,6.73,0A4.979,4.979,0,0,1,10,4.439L8.87,5,10,5.561A4.979,4.979,0,0,1,8.365,8.717,5.039,5.039,0,0,1,5,10Z" fill="#2149b9"/>
      <path id="X" d="M.778,3.828l.831-1.4.828,1.4h.78L2.027,1.9,3.191,0H2.418l-.81,1.383L.8,0H.026L1.193,1.9,0,3.828Z" transform="translate(3.383 3.095)" fill="#fff"/>
    </g>
  </g>
</svg>
