<svg xmlns="http://www.w3.org/2000/svg" width="26.667" height="22" viewBox="0 0 26.667 22">
  <g id="Wallet" transform="translate(-125.996 -95.198)">
    <path id="Path_826" data-name="Path 826" d="M128,95.2a1.333,1.333,0,1,0,0,2.666h20.667V95.2Zm-2,3.094v17.239a1.663,1.663,0,0,0,1.667,1.667H151a1.663,1.663,0,0,0,1.667-1.667v-3H142.329a1.678,1.678,0,0,1-1.667-1.667v-5.333a1.678,1.678,0,0,1,1.667-1.667h10.333v-3A1.663,1.663,0,0,0,151,99.2l-23.312-.021A2.665,2.665,0,0,1,126,98.292Zm16.333,6.906a.319.319,0,0,0-.333.333v5.333a.319.319,0,0,0,.333.333h10.333v-6Zm3.333,2a1,1,0,1,1-1,1A1,1,0,0,1,145.663,107.2Z" transform="translate(0 0)" fill="#fff"/>
  </g>
</svg>
