<svg id="eDviGTAd5Ps1" xmlns="http://www.w3.org/2000/svg" xmlns:xlink="http://www.w3.org/1999/xlink" viewBox="0 0 620 620" shape-rendering="geometricPrecision" text-rendering="geometricPrecision"><style><![CDATA[#eDviGTAd5Ps9 {animation: eDviGTAd5Ps9_s_do 1290.3225806451612ms linear infinite normal forwards}@keyframes eDviGTAd5Ps9_s_do { 0% {stroke-dashoffset: 172.79} 66.666667% {stroke-dashoffset: 0} 100% {stroke-dashoffset: 0}}]]></style><rect width="620" height="620" rx="0" ry="0" fill="#fff" stroke-width="0"/><g transform="matrix(6.339521 0 0 6.339521-6711.019507-3834.315485)"><circle r="27.5" transform="matrix(1.513631 0 0 1.513631 1107.5 653.5)" fill="none" stroke="#cfcfcf" stroke-width="0.5" stroke-dashoffset="172.79" stroke-dasharray="0"/><g transform="translate(1065 615.5)"><path d="M25,50c-6.207193.007234-12.198686-2.276698-16.826-6.414C3.601127,39.510465,0.690961,33.892356,0,27.806L5.649,25L0,22.193c.691434-6.085642,3.601561-11.702963,8.174-15.778c9.586835-8.552323,24.064165-8.552323,33.651,0c4.57281,4.074876,7.483303,9.692217,8.175,15.778L44.351,25L50,27.807c-.691197,6.085999-3.601344,11.703714-8.174,15.779C37.198686,47.723302,31.207193,50.007234,25,50Z" transform="translate(17.5 13)" fill="#2149b9"/><path d="M3.97,19.662l4.24-7.211l4.227,7.211h3.984L10.344,9.75L16.286,0h-3.943L8.211,7.1L4.078,0h-3.943L6.09,9.75L0,19.662Z" transform="translate(34.247 28.213)" fill="#fff"/></g></g><g transform="matrix(6.339521 0 0 6.339521-6712.188817-3833.156008)"><circle id="eDviGTAd5Ps9" r="27.5" transform="matrix(0-1.513631-1.513631 0 1107.684412 653.317088)" fill="none" stroke="#2149b9" stroke-width="0.5" stroke-dashoffset="172.79" stroke-dasharray="172.79"/></g></svg>