<svg xmlns="http://www.w3.org/2000/svg" width="30" height="30" viewBox="0 0 30 30"><defs><style>.a{fill:none;stroke-miterlimit:10;}.b{fill:#fff;}.c,.d{stroke:none;}.d{fill:#fff;}</style></defs><g class="a" transform="translate(0 0)"><path class="c" d="M14.906,30A15,15,0,0,1,0,16.684L3.368,15,0,13.316a15,15,0,0,1,29.813,0L26.445,15l3.368,1.684A15,15,0,0,1,14.906,30Z"/><path class="d" d="M 14.90641498565674 28.00011825561523 C 18.12423515319824 28.00011825561523 21.21201515197754 26.81570816040039 23.60094451904297 24.66507911682129 C 25.62964820861816 22.8387508392334 27.0207405090332 20.44327163696289 27.60131454467773 17.81430816650391 L 21.97295379638672 15.00038814544678 L 27.60136795043945 12.18594264984131 C 27.02079200744629 9.557041168212891 25.62967491149902 7.161509990692139 23.60095405578613 5.335148334503174 C 21.21197509765625 3.184438228607178 18.12419509887695 1.999998211860657 14.90641498565674 1.999998211860657 C 11.6887845993042 1.999998211860657 8.601114273071289 3.184438228607178 6.212174892425537 5.335128307342529 C 4.183472156524658 7.161515712738037 2.792370796203613 9.557050704956055 2.211806058883667 12.18594074249268 L 7.840384960174561 15.00046825408936 L 2.211843967437744 17.81422424316406 C 2.792410850524902 20.44319534301758 4.183490753173828 22.83864974975586 6.212184906005859 24.6650276184082 C 8.601095199584961 26.81569862365723 11.68876457214355 28.00011825561523 14.90641498565674 28.00011825561523 M 14.90641498565674 30.00011825561523 C 11.19373512268066 30.00011825561523 7.630834579467773 28.63328742980957 4.874034881591797 26.15141868591309 C 2.137874841690063 23.6881275177002 0.4069047272205353 20.32584762573242 1.473968495702138e-05 16.6839485168457 L 3.368074655532837 15.00022792816162 L 4.73968520964263e-06 13.31604862213135 C 0.4069147408008575 9.674037933349609 2.137954711914062 6.311948299407959 4.874024868011475 3.848738193511963 C 7.63086462020874 1.366838216781616 11.19376468658447 -1.82586666142015e-06 14.90641498565674 -1.82586666142015e-06 C 18.61920547485352 -1.82586666142015e-06 22.18221473693848 1.366838216781616 24.93909454345703 3.848748207092285 C 27.67529487609863 6.312028408050537 29.40627479553223 9.674247741699219 29.81317520141602 13.31604862213135 L 26.44510459899902 15.00022792816162 L 29.81313514709473 16.6840877532959 C 29.40621566772461 20.32622909545898 27.6751651763916 23.6883373260498 24.9390754699707 26.15148735046387 C 22.1822452545166 28.6333179473877 18.6192455291748 30.00011825561523 14.90641498565674 30.00011825561523 Z"/></g><path class="b" d="M2.319,11.484,4.8,7.272l2.469,4.212H9.591L6.042,5.695,9.512,0h-2.3L4.8,4.149,2.382,0H.079L3.557,5.695,0,11.484Z" transform="translate(10.086 9.285)"/></svg>