<svg xmlns="http://www.w3.org/2000/svg" width="70" height="70" viewBox="0 0 70 70"><defs><style>.a{fill:none;}.b{fill:#2149b9;}</style></defs><g transform="translate(-1088 -357)"><rect class="a" width="70" height="70" transform="translate(1088 357)"/><g transform="translate(730 248.28)"><path class="b" d="M100.33,63.021a5.482,5.482,0,0,0-2.568-3.36c-.158-.092-.328-.149-.492-.224V45.962c.152-.07.313-.106.46-.19a5.528,5.528,0,0,0-5.506-9.587c-.157.09-.29.207-.436.31L80.07,29.73c.014-.161.049-.317.049-.482a5.529,5.529,0,1,0-11.057,0c0,.165.035.32.049.482l-11.7,6.758c-.117-.08-.218-.175-.342-.247a5.531,5.531,0,0,0-7.551,2.021,5.535,5.535,0,0,0,2.021,7.551c.119.069.252.1.375.156V59.556c-.106.053-.218.084-.322.144h0a5.527,5.527,0,1,0,5.517,9.58c.121-.07.218-.162.332-.239l11.754,6.785c-.008.119-.035.235-.035.355a5.537,5.537,0,0,0,5.519,5.538h.009A5.53,5.53,0,0,0,80.209,76.2c0-.161-.032-.316-.046-.474l11.7-6.755c.118.081.223.177.348.25a5.5,5.5,0,0,0,2.766.749,5.591,5.591,0,0,0,1.429-.187,5.525,5.525,0,0,0,3.92-6.762ZM91.138,39.939a3.932,3.932,0,0,1,1.092-1.821.776.776,0,0,0,.211-.194,3.94,3.94,0,0,1,3.575-.783,3.976,3.976,0,1,1-4.878,2.8ZM90.6,37.6a5.479,5.479,0,0,0-.733,5.423L82.971,47a10.079,10.079,0,0,0-7.606-4.317V34.7a5.523,5.523,0,0,0,4.344-3.384ZM83.206,52.72a8.554,8.554,0,1,1-8.554-8.554A8.564,8.564,0,0,1,83.206,52.72ZM74.59,25.272a3.976,3.976,0,1,1-3.977,3.977A3.982,3.982,0,0,1,74.59,25.272Zm-5.12,6.042A5.523,5.523,0,0,0,73.814,34.7v8a10.086,10.086,0,0,0-7.541,4.378L59.4,43.107a5.518,5.518,0,0,0-.787-5.521ZM65.578,57.085l-6.9,4.011a5.515,5.515,0,0,0-5.218-2.046v-12.6a5.416,5.416,0,0,0,.832.11,5.55,5.55,0,0,0,1.434-.191,5.463,5.463,0,0,0,2.89-1.92l6.914,3.992a9.766,9.766,0,0,0,.047,8.645ZM50.857,39.038a3.952,3.952,0,0,1,2.414-1.852,4.042,4.042,0,0,1,1.035-.136,3.94,3.94,0,0,1,1.983.535,3.976,3.976,0,1,1-5.432,1.453Zm5.472,28.9A3.977,3.977,0,1,1,57.792,62.5,3.978,3.978,0,0,1,56.329,67.936Zm2.312.01a5.514,5.514,0,0,0,.811-5.507l6.882-4a10.079,10.079,0,0,0,7.542,4.309v7.994a5.422,5.422,0,0,0-4.351,3.488ZM77.49,79.009a3.949,3.949,0,0,1-2.808,1.16h-.006a3.977,3.977,0,0,1,0-7.954h.006a3.979,3.979,0,0,1,2.8,6.794Zm2.32-4.87a5.449,5.449,0,0,0-4.383-3.4V62.747a10.062,10.062,0,0,0,7.779-4.708l6.693,4.3a5.437,5.437,0,0,0,.764,5.534Zm4.139-17.466a9.9,9.9,0,0,0-.222-8.315l6.91-3.99a5.468,5.468,0,0,0,2.9,1.947,5.615,5.615,0,0,0,1.453.193,5.461,5.461,0,0,0,.732-.1V58.96A5.483,5.483,0,0,0,90.685,61Zm14.48,9.762a3.978,3.978,0,0,1-5.436,1.446,4.017,4.017,0,0,1-.514-.369.745.745,0,0,0-.165-.133,3.975,3.975,0,1,1,6.115-.943Z" transform="translate(318.226 91)"/></g></g></svg>