<svg xmlns="http://www.w3.org/2000/svg" width="70" height="70" viewBox="0 0 70 70"><defs><style>.a{fill:none;}.b{fill:#2149b9;}</style></defs><g transform="translate(-689 -306)"><rect class="a" width="70" height="70" transform="translate(689 306)"/><g transform="translate(687 304)"><path class="b" d="M66,37A29,29,0,1,0,18.513,59.233v.121h0a29.037,29.037,0,0,0,36.975,0h0A29.277,29.277,0,0,0,66,37ZM10.417,37A26.583,26.583,0,1,1,55,56.575a22.979,22.979,0,0,0-36.008,0A26.808,26.808,0,0,1,10.417,37ZM20.929,58.146a20.369,20.369,0,0,1,32.142,0,26.468,26.468,0,0,1-32.142,0Z"/><path class="b" d="M32.208,16.833A1.142,1.142,0,0,1,31,15.625V13.208a1.208,1.208,0,1,1,2.417,0v2.417A1.142,1.142,0,0,1,32.208,16.833Z" transform="translate(4.792 0.833)"/><path class="b" d="M23.825,18.979a1.442,1.442,0,0,1-1.088-.6l-1.208-2.054A1.244,1.244,0,0,1,23.7,15.113l1.208,2.054a1.223,1.223,0,0,1-.483,1.692C24.188,18.859,24.067,18.979,23.825,18.979Z" transform="translate(2.783 1.346)"/><path class="b" d="M17.562,24.924a1.089,1.089,0,0,1-.6-.121L14.9,23.6A1.338,1.338,0,0,1,14.42,21.9a1.3,1.3,0,0,1,1.692-.483l2.054,1.208a1.338,1.338,0,0,1,.483,1.692A1.057,1.057,0,0,1,17.562,24.924Z" transform="translate(1.313 2.772)"/><path class="b" d="M15.625,33.417H13.208a1.208,1.208,0,1,1,0-2.417h2.417a1.208,1.208,0,1,1,0,2.417Z" transform="translate(0.833 4.792)"/><path class="b" d="M51.625,33.417H49.208a1.208,1.208,0,1,1,0-2.417h2.417a1.208,1.208,0,0,1,0,2.417Z" transform="translate(8.333 4.792)"/><path class="b" d="M46.817,25.034a1.442,1.442,0,0,1-1.088-.6,1.223,1.223,0,0,1,.483-1.692l2.054-1.208A1.244,1.244,0,1,1,49.475,23.7l-2.054,1.208A5.233,5.233,0,0,1,46.817,25.034Z" transform="translate(7.825 2.783)"/><path class="b" d="M40.508,18.87a1.089,1.089,0,0,1-.6-.121,1.338,1.338,0,0,1-.483-1.692L40.628,15A1.244,1.244,0,0,1,42.8,16.212L41.6,18.266A1.67,1.67,0,0,1,40.508,18.87Z" transform="translate(6.522 1.334)"/><path class="b" d="M46.383,25.5a1.338,1.338,0,0,0-1.692-.483l-9.062,5.2a4.4,4.4,0,0,0-2.779-1.088,4.35,4.35,0,1,0,4.35,4.35,3.575,3.575,0,0,0-.242-1.208l8.942-5.2A1.066,1.066,0,0,0,46.383,25.5ZM32.85,35.533A1.933,1.933,0,1,1,34.783,33.6,1.909,1.909,0,0,1,32.85,35.533Z" transform="translate(4.271 3.522)"/></g></g></svg>