<svg xmlns="http://www.w3.org/2000/svg" width="70" height="70" viewBox="0 0 70 70"><defs><style>.a{fill:none;}.b{fill:#2149b9;stroke:#2049b9;stroke-width:0.3px;}</style></defs><g transform="translate(-416 -903)"><rect class="a" width="70" height="70" transform="translate(416 903)"/><g transform="translate(501 929)"><g transform="translate(-77 -12)"><path class="b" d="M-660.3,580.641V566.956h2.2v25.227h50.514V566.956h2.083v27.369h-54.8Zm21.97-3.882c-2.921-2.921-5.31-5.338-5.31-5.371a12.944,12.944,0,0,1,1.458-1.457c.032,0,1.9,1.841,4.149,4.09l4.091,4.09V551.724h2.142v26.387l4.091-4.09c2.25-2.25,4.117-4.09,4.149-4.09a12.912,12.912,0,0,1,1.458,1.457c0,.033-2.39,2.45-5.31,5.371-4.209,4.208-5.341,5.31-5.459,5.31S-634.127,580.967-638.335,576.758Z" transform="translate(660.305 -551.724)"/></g></g></g></svg>