<svg xmlns="http://www.w3.org/2000/svg" width="70" height="70" viewBox="0 0 70 70"><defs><style>.a{fill:none;}.b{fill:#2149b9;stroke:#2049b9;stroke-width:0.3px;}</style></defs><g transform="translate(-1346 -615)"><rect class="a" width="70" height="70" transform="translate(1346 615)"/><g transform="translate(1354 625)"><g transform="translate(9)"><path class="b" d="M44.573,8.789,36.012.228A.848.848,0,0,0,35.461,0H9.778A.778.778,0,0,0,9,.778V49.032a.778.778,0,0,0,.778.778H44.023a.778.778,0,0,0,.778-.778V9.339a.85.85,0,0,0-.228-.55Zm-2.429-.228h-5.9v-5.9ZM10.557,48.253V1.557H34.683V9.339a.778.778,0,0,0,.778.778h7.783V48.253ZM22,23.9l-4.119,4.119L22,32.137a.778.778,0,1,1-1.1,1.1l-4.67-4.67a.778.778,0,0,1,0-1.1L20.9,22.8A.778.778,0,1,1,22,23.9Zm15.566,3.569a.778.778,0,0,1,0,1.1l-4.67,4.67a.778.778,0,1,1-1.1-1.1l4.119-4.119L31.8,23.9a.778.778,0,1,1,1.1-1.1ZM29.223,19.6,26.11,36.718a.778.778,0,0,1-1.531-.278l3.113-17.122a.778.778,0,0,1,1.532.278Z" transform="translate(-9)"/></g></g></g></svg>